<svg width="131" height="28" viewBox="0 0 131 28" fill="none" xmlns="http://www.w3.org/2000/svg">
<path d="M15.3776 5.27845L16.4112 4.24488C18.4409 2.21521 21.7452 2.16498 23.7865 4.18295C24.56 4.94929 25.0741 5.93869 25.2564 7.01216C25.4388 8.08564 25.2802 9.18926 24.8031 10.168C24.5742 10.6356 24.4972 11.1629 24.5825 11.6764C24.6679 12.1899 24.9115 12.6639 25.2794 13.0322C25.9559 12.3542 26.492 11.5495 26.8573 10.6642C27.2227 9.77891 27.4101 8.8303 27.4088 7.87257C27.4073 6.91486 27.2174 5.96679 26.8495 5.08253C26.4816 4.19826 25.9431 3.39514 25.2648 2.71904C22.4103 -0.119326 17.777 -0.0628431 14.9305 2.7835L5.07884 12.6349L4.26894 11.825C2.20486 9.76094 2.1917 6.38698 4.2922 4.35957C5.06971 3.61143 6.06028 3.12305 7.12718 2.96184C8.19408 2.80063 9.28471 2.97454 10.2486 3.45957C10.6885 3.68501 11.1884 3.76565 11.6769 3.68999C12.1654 3.61433 12.6175 3.38623 12.9686 3.03827L12.9938 3.01328C13.0016 3.00552 13.0078 2.99629 13.012 2.98611C13.0162 2.97594 13.0184 2.96503 13.0184 2.95401C13.0184 2.94299 13.0162 2.93208 13.012 2.92191C13.0078 2.91175 13.0016 2.90251 12.9938 2.89474C11.6378 1.57285 9.82078 0.830354 7.92711 0.82435C6.03346 0.818349 4.21173 1.54931 2.84743 2.86257C-0.0914122 5.69961 -0.0809104 10.4173 2.80756 13.3058L12.6563 23.1546L11.6101 24.2008C9.58047 26.2304 6.27602 26.2807 4.23479 24.2627C3.46129 23.4964 2.94727 22.507 2.76491 21.4335C2.58257 20.3601 2.74105 19.2565 3.21809 18.2776C3.44696 17.8101 3.5241 17.2827 3.43874 16.7693C3.35336 16.2558 3.10974 15.7818 2.74191 15.4135C2.06548 16.0916 1.52927 16.8961 1.16391 17.7814C0.798551 18.6668 0.611199 19.6153 0.612556 20.5731C0.613914 21.5308 0.803954 22.4789 1.17183 23.3631C1.5397 24.2474 2.07819 25.0505 2.75653 25.7266C5.61085 28.5651 10.2443 28.5088 13.0908 25.6623L22.9552 15.7977L23.7682 16.6107C25.7979 18.6403 25.8481 21.9446 23.8301 23.9859C23.0638 24.7595 22.0744 25.2734 21.0009 25.4559C19.9275 25.6382 18.8239 25.4797 17.8451 25.0026C17.3774 24.7736 16.8498 24.6964 16.3361 24.782C15.8224 24.8674 15.3482 25.1113 14.98 25.4794C15.658 26.1559 16.4626 26.6921 17.3479 27.0575C18.2333 27.4228 19.1818 27.6102 20.1396 27.6089C21.0973 27.6074 22.0454 27.4174 22.9296 27.0495C23.8139 26.6816 24.617 26.1431 25.2931 25.4648C28.1316 22.6105 28.0751 17.977 25.2288 15.1307L15.3776 5.27845ZM14.127 21.6832L6.54992 14.1061L13.9064 6.7498L21.4835 14.3269L14.127 21.6832Z" fill="white"/>
<path d="M39.987 23.0098C38.4792 23.0098 37.3266 22.5674 36.5291 21.6827C35.7378 20.798 35.2954 19.5892 35.202 18.0565L37.5945 17.4584C37.7129 19.8509 38.5104 21.0472 39.987 21.0472C41.1833 21.0472 41.7814 20.4491 41.7814 19.2528C41.7814 18.8977 41.7316 18.5706 41.6319 18.2715C41.5384 17.9662 41.392 17.6889 41.1926 17.4397C40.9932 17.1843 40.8126 16.9818 40.6506 16.8322C40.4886 16.6765 40.2674 16.4864 39.987 16.2621L36.9964 13.8696C36.4481 13.4397 36.0088 12.8946 35.6786 12.2341C35.3546 11.5675 35.1926 10.8104 35.1926 9.9631C35.1926 8.72945 35.5758 7.74815 36.3422 7.01918C37.1085 6.29021 38.1241 5.92572 39.3889 5.92572C40.7471 5.92572 41.825 6.25905 42.6225 6.92572C43.4263 7.58615 43.9216 8.52385 44.1085 9.7388C44.1272 9.86964 44.149 10.0503 44.1739 10.2809L41.7814 10.879C41.7752 10.7731 41.7596 10.6142 41.7347 10.4023C41.6288 9.64222 41.3889 9.03475 41.015 8.57992C40.6474 8.11886 40.1054 7.88833 39.3889 7.88833C38.8157 7.88833 38.3733 8.05033 38.0618 8.37431C37.7503 8.69207 37.5945 9.13755 37.5945 9.71076C37.5945 10.6516 37.9932 11.4397 38.7908 12.0752L41.7814 14.4678C43.3764 15.7575 44.1739 17.2995 44.1739 19.0939C44.1739 20.3213 43.7939 21.2808 43.0337 21.9724C42.2798 22.664 41.2643 23.0098 39.987 23.0098Z" fill="white"/>
<path d="M49.1739 21.0472C49.8032 21.0472 50.4013 20.8852 50.9683 20.5612V13.1594C50.9434 13.1469 50.8811 13.1095 50.7814 13.0472C50.6817 12.9849 50.61 12.9444 50.5664 12.9257C50.529 12.9008 50.4636 12.8634 50.3702 12.8136C50.2767 12.7637 50.1988 12.7294 50.1365 12.7108C50.0805 12.6858 50.0057 12.6609 49.9122 12.636C49.825 12.6048 49.7378 12.583 49.6505 12.5706C49.5695 12.5581 49.4823 12.5519 49.3889 12.5519C49.1895 12.5519 49.0119 12.5986 48.8562 12.6921C48.7066 12.7793 48.582 12.8852 48.4823 13.0098C48.3826 13.1344 48.2954 13.312 48.2206 13.5425C48.1521 13.7731 48.1023 13.9787 48.0711 14.1593C48.04 14.3338 48.015 14.5706 47.9963 14.8696C47.9777 15.1625 47.9652 15.3899 47.959 15.5519C47.959 15.7139 47.959 15.9413 47.959 16.2341C47.959 16.2466 47.959 16.2559 47.959 16.2621C47.959 16.3681 47.959 16.5394 47.959 16.7762C47.959 17.0129 47.959 17.2403 47.959 17.4584C47.959 17.6765 47.959 17.8821 47.959 18.0752C47.9652 18.4927 47.9839 18.8603 48.015 19.178C48.0524 19.4896 48.1116 19.798 48.1926 20.1033C48.2798 20.4023 48.4044 20.636 48.5664 20.8042C48.7347 20.9662 48.9372 21.0472 49.1739 21.0472ZM50.9683 26.4304V21.7668C50.6132 22.1344 50.2456 22.4335 49.8655 22.664C49.4917 22.8945 49.0618 23.0098 48.5758 23.0098C48.1147 23.0098 47.7035 22.8945 47.3421 22.664C46.987 22.4272 46.7004 22.1251 46.4823 21.7575C46.2705 21.3899 46.0929 20.9568 45.9496 20.4584C45.8125 19.9537 45.716 19.4584 45.6599 18.9724C45.6101 18.4864 45.5851 17.9818 45.5851 17.4584V15.636C45.5851 15.0939 45.6101 14.5986 45.6599 14.15C45.7097 13.7014 45.8001 13.259 45.9309 12.8229C46.0618 12.3868 46.2331 12.0192 46.4449 11.7201C46.663 11.4148 46.9496 11.1718 47.3048 10.9911C47.6599 10.8042 48.0711 10.7108 48.5384 10.7108C48.8063 10.7108 49.0555 10.7481 49.2861 10.8229C49.5228 10.8914 49.7471 11.0036 49.959 11.1594C50.177 11.3151 50.3452 11.4522 50.4636 11.5706C50.5882 11.6827 50.7565 11.8509 50.9683 12.0752V10.879H53.3608V26.4304H50.9683Z" fill="white"/>
<path d="M56.987 23.0098C56.4636 23.0098 56.0431 22.826 55.7253 22.4584C55.4075 22.0846 55.2487 21.6235 55.2487 21.0752V10.879H57.6412V20.3463C57.6412 20.5955 57.716 20.798 57.8655 20.9537C58.0212 21.1095 58.2206 21.1874 58.4636 21.1874C58.5945 21.1874 58.7222 21.1718 58.8468 21.1406C58.9714 21.1095 59.0929 21.0565 59.2113 20.9818C59.3359 20.9008 59.4325 20.8385 59.501 20.7949C59.5695 20.745 59.6661 20.664 59.7907 20.5519C59.9216 20.4397 60.0026 20.3712 60.0337 20.3463V10.879H62.4262V22.8416H60.0337V21.5519C59.7969 21.7575 59.6225 21.907 59.5103 22.0005C59.4044 22.0939 59.2393 22.2216 59.015 22.3836C58.7907 22.5394 58.5913 22.6547 58.4169 22.7294C58.2487 22.798 58.0368 22.8603 57.7814 22.9163C57.5259 22.9786 57.2611 23.0098 56.987 23.0098Z" fill="white"/>
<path d="M67.7907 21.0472C67.9589 21.0472 68.1209 20.9973 68.2767 20.8977C68.4387 20.798 68.5602 20.7014 68.6412 20.6079C68.7222 20.5145 68.8218 20.3899 68.9402 20.2341C68.9589 20.203 68.9745 20.1811 68.987 20.1687V16.8603C68.8873 16.9288 68.7222 17.0347 68.4916 17.178C68.2611 17.3213 68.0773 17.4397 67.9402 17.5332C67.8032 17.6204 67.6381 17.745 67.4449 17.907C67.2518 18.0628 67.1022 18.2154 66.9963 18.3649C66.8904 18.5083 66.7969 18.6858 66.7159 18.8977C66.6349 19.1095 66.5944 19.3307 66.5944 19.5612C66.5944 20.5519 66.9932 21.0472 67.7907 21.0472ZM66.5944 23.0098C65.9278 23.0098 65.3608 22.7232 64.8935 22.15C64.4324 21.5706 64.2019 20.9195 64.2019 20.1967C64.2019 19.6173 64.2985 19.0908 64.4916 18.6173C64.691 18.1438 64.8997 17.7668 65.1178 17.4864C65.3359 17.1998 65.7004 16.907 66.2113 16.6079C66.7222 16.3026 67.1085 16.0939 67.3701 15.9818C67.6318 15.8696 68.0866 15.6858 68.7346 15.4304C68.8468 15.3868 68.9309 15.3525 68.987 15.3276V14.4678C68.987 13.8634 68.9028 13.3961 68.7346 13.0659C68.5664 12.7294 68.2518 12.5612 67.7907 12.5612C67.3795 12.5612 67.0835 12.7045 66.9029 12.9911C66.7284 13.2715 66.6287 13.6609 66.6038 14.1593C66.5976 14.2279 66.5944 14.3307 66.5944 14.4678H64.2019C64.2144 13.3213 64.5353 12.4086 65.1645 11.7294C65.7938 11.0503 66.6692 10.7108 67.7907 10.7108C68.906 10.7108 69.7813 11.0566 70.4169 11.7481C71.0586 12.4335 71.3795 13.34 71.3795 14.4678V19.8509C71.3795 21.097 71.4823 22.0939 71.6879 22.8416H69.3047L68.987 21.0472C68.8623 21.2964 68.7595 21.4896 68.6785 21.6266C68.6038 21.7637 68.4916 21.935 68.3421 22.1406C68.1926 22.34 68.043 22.4958 67.8935 22.6079C67.744 22.7139 67.5571 22.8073 67.3328 22.8883C67.1085 22.9693 66.8624 23.0098 66.5944 23.0098Z" fill="white"/>
<path d="M73.4449 22.8416V10.879L75.8374 10.879V12.4771C76.0804 12.0036 76.4324 11.5924 76.8935 11.2435C77.3608 10.8883 77.8779 10.7108 78.4449 10.7108C78.4636 10.7108 78.5913 10.7232 78.8281 10.7481V13.393C78.3857 13.2185 77.9433 13.1313 77.501 13.1313C77.0025 13.1313 76.6007 13.2808 76.2954 13.5799C75.9901 13.879 75.8374 14.2746 75.8374 14.7668V22.8416H73.4449Z" fill="white"/>
<path d="M83.2206 23.0098C82.6411 23.0098 82.1365 22.9101 81.7066 22.7107C81.2829 22.5114 80.9433 22.2528 80.6879 21.935C80.4387 21.611 80.2362 21.1998 80.0804 20.7014C79.9246 20.1967 79.8156 19.6952 79.7533 19.1967C79.6972 18.6921 79.663 18.1064 79.6505 17.4397C79.6318 16.9164 79.6318 16.393 79.6505 15.8696C79.6692 15.2466 79.7097 14.6952 79.772 14.2154C79.8405 13.7294 79.9558 13.259 80.1178 12.8042C80.2798 12.3494 80.4885 11.9756 80.7439 11.6827C81.0056 11.3899 81.3452 11.1562 81.7626 10.9818C82.1863 10.8011 82.6785 10.7108 83.2393 10.7108C83.7502 10.7108 84.1988 10.7793 84.5851 10.9164C84.9776 11.0472 85.3016 11.2497 85.557 11.5238C85.8187 11.7918 86.0337 12.0908 86.2019 12.421C86.3763 12.7513 86.5072 13.1531 86.5944 13.6266C86.6816 14.0939 86.7408 14.555 86.772 15.0098C86.8094 15.4646 86.828 15.988 86.828 16.5799V16.8603H82.043V17.4584C82.043 17.5394 82.043 17.6671 82.043 17.8416C82.0305 18.0721 82.0274 18.312 82.0337 18.5612C82.0461 18.8042 82.0586 19.0441 82.071 19.2808C82.0835 19.5176 82.1178 19.745 82.1739 19.9631C82.2299 20.1749 82.2985 20.3618 82.3795 20.5238C82.4605 20.6858 82.5726 20.8135 82.7159 20.907C82.8654 21.0005 83.0399 21.0472 83.2393 21.0472C83.4885 21.0472 83.6941 21.0005 83.8561 20.907C84.0181 20.8073 84.1365 20.6609 84.2112 20.4677C84.2922 20.2746 84.3483 20.0815 84.3795 19.8883C84.4106 19.6952 84.4293 19.4522 84.4355 19.1593V18.6547H86.8094V19.1313C86.7533 20.4086 86.4386 21.3743 85.8654 22.0285C85.2922 22.6827 84.4106 23.0098 83.2206 23.0098ZM82.043 15.664H84.4168V14.9444C84.4106 14.6266 84.3919 14.3494 84.3608 14.1126C84.3296 13.8759 84.2735 13.6391 84.1925 13.4023C84.1178 13.1656 83.9994 12.9849 83.8374 12.8603C83.6754 12.7357 83.476 12.6734 83.2393 12.6734C82.9963 12.6734 82.7907 12.7388 82.6224 12.8696C82.4605 13.0005 82.339 13.1905 82.258 13.4397C82.1832 13.6827 82.1302 13.9226 82.0991 14.1593C82.0679 14.3961 82.0492 14.6796 82.043 15.0098V15.664Z" fill="white"/>
<path d="M93.0336 23.0098C91.5259 23.0098 90.3732 22.5674 89.5757 21.6827C88.7844 20.798 88.3421 19.5892 88.2486 18.0565L90.6411 17.4584C90.7595 19.8509 91.557 21.0472 93.0336 21.0472C94.2299 21.0472 94.828 20.4491 94.828 19.2528C94.828 18.8977 94.7782 18.5706 94.6785 18.2715C94.585 17.9662 94.4386 17.6889 94.2392 17.4397C94.0399 17.1843 93.8592 16.9818 93.6972 16.8322C93.5352 16.6765 93.314 16.4864 93.0336 16.2621L90.043 13.8696C89.4947 13.4397 89.0555 12.8946 88.7252 12.2341C88.4013 11.5675 88.2393 10.8104 88.2393 9.9631C88.2393 8.72945 88.6224 7.74815 89.3888 7.01918C90.1551 6.29021 91.1707 5.92572 92.4355 5.92572C93.7938 5.92572 94.8716 6.25905 95.6692 6.92572C96.4729 7.58615 96.9682 8.52385 97.1551 9.7388C97.1738 9.86964 97.1956 10.0503 97.2206 10.2809L94.828 10.879C94.8218 10.7731 94.8062 10.6142 94.7813 10.4023C94.6754 9.64222 94.4355 9.03475 94.0617 8.57992C93.6941 8.11886 93.152 7.88833 92.4355 7.88833C91.8623 7.88833 91.4199 8.05033 91.1084 8.37431C90.7969 8.69207 90.6411 9.13755 90.6411 9.71076C90.6411 10.6516 91.0399 11.4397 91.8374 12.0752L94.828 14.4678C96.423 15.7575 97.2206 17.2995 97.2206 19.0939C97.2206 20.3213 96.8405 21.2808 96.0804 21.9724C95.3265 22.664 94.3109 23.0098 93.0336 23.0098Z" fill="white"/>
<path d="M102.183 23.0098C101.242 23.0098 100.557 22.7699 100.127 22.2902C99.7034 21.8104 99.4853 21.0846 99.4729 20.1126V12.6734H98.2766V10.879H99.4729V6.69207H101.865V10.879L103.66 10.879V12.6734L101.865 12.6734V19.6547C101.865 20.1344 101.931 20.4864 102.062 20.7107C102.193 20.935 102.457 21.0472 102.856 21.0472C103.031 21.0472 103.298 21.016 103.66 20.9537V22.8977C103.062 22.9724 102.569 23.0098 102.183 23.0098Z" fill="white"/>
<path d="M111.454 21.8883C110.9 22.636 109.981 23.0098 108.697 23.0098C107.414 23.0098 106.495 22.636 105.94 21.8883C105.386 21.1406 105.108 20.0628 105.108 18.6547V15.0659C105.108 13.6578 105.386 12.5799 105.94 11.8323C106.495 11.0846 107.414 10.7108 108.697 10.7108C109.981 10.7108 110.9 11.0846 111.454 11.8323C112.009 12.5799 112.286 13.6578 112.286 15.0659V18.6547C112.286 20.0628 112.009 21.1406 111.454 21.8883ZM108.249 20.9724C108.379 21.0223 108.529 21.0472 108.697 21.0472C108.865 21.0472 109.012 21.0223 109.136 20.9724C109.267 20.9226 109.373 20.8634 109.454 20.7949C109.541 20.7201 109.613 20.6142 109.669 20.4771C109.725 20.3338 109.769 20.2092 109.8 20.1033C109.831 19.9973 109.853 19.8447 109.865 19.6453C109.878 19.4459 109.884 19.2902 109.884 19.178C109.89 19.0597 109.893 18.8852 109.893 18.6547V15.0659C109.893 14.8354 109.89 14.664 109.884 14.5519C109.884 14.4335 109.878 14.2746 109.865 14.0752C109.853 13.8759 109.831 13.7232 109.8 13.6173C109.769 13.5114 109.725 13.3899 109.669 13.2528C109.613 13.1095 109.541 13.0036 109.454 12.9351C109.373 12.8603 109.267 12.798 109.136 12.7481C109.012 12.6983 108.865 12.6734 108.697 12.6734C108.529 12.6734 108.379 12.6983 108.249 12.7481C108.124 12.798 108.018 12.8603 107.931 12.9351C107.85 13.0036 107.781 13.1095 107.725 13.2528C107.669 13.3899 107.626 13.5114 107.594 13.6173C107.563 13.7232 107.541 13.8759 107.529 14.0752C107.516 14.2746 107.507 14.4335 107.501 14.5519C107.501 14.664 107.501 14.8354 107.501 15.0659V18.6547C107.501 18.8852 107.501 19.0597 107.501 19.178C107.507 19.2902 107.516 19.4459 107.529 19.6453C107.541 19.8447 107.563 19.9973 107.594 20.1033C107.626 20.2092 107.669 20.3338 107.725 20.4771C107.781 20.6142 107.85 20.7201 107.931 20.7949C108.018 20.8634 108.124 20.9226 108.249 20.9724Z" fill="white"/>
<path d="M114.249 22.8416V10.879H116.641V12.1687C116.996 11.8447 117.286 11.5986 117.51 11.4304C117.735 11.2559 118.043 11.0939 118.435 10.9444C118.834 10.7886 119.258 10.7108 119.706 10.7108C120.217 10.7108 120.632 10.8977 120.949 11.2715C121.267 11.6453 121.426 12.1033 121.426 12.6453V22.8416H119.034V13.8696C119.034 13.4522 118.974 13.15 118.856 12.9631C118.738 12.7699 118.498 12.6734 118.136 12.6734C117.931 12.6734 117.725 12.717 117.52 12.8042C117.32 12.8852 117.171 12.9631 117.071 13.0379C116.971 13.1064 116.828 13.2185 116.641 13.3743V22.8416H114.249Z" fill="white"/>
<path d="M126.903 23.0098C126.323 23.0098 125.819 22.9101 125.389 22.7107C124.965 22.5114 124.625 22.2528 124.37 21.935C124.121 21.611 123.918 21.1998 123.763 20.7014C123.607 20.1967 123.498 19.6952 123.435 19.1967C123.379 18.6921 123.345 18.1064 123.333 17.4397C123.314 16.9164 123.314 16.393 123.333 15.8696C123.351 15.2466 123.392 14.6952 123.454 14.2154C123.523 13.7294 123.638 13.259 123.8 12.8042C123.962 12.3494 124.171 11.9756 124.426 11.6827C124.688 11.3899 125.027 11.1562 125.445 10.9818C125.868 10.8011 126.361 10.7108 126.921 10.7108C127.432 10.7108 127.881 10.7793 128.267 10.9164C128.66 11.0472 128.984 11.2497 129.239 11.5238C129.501 11.7918 129.716 12.0908 129.884 12.421C130.058 12.7513 130.189 13.1531 130.277 13.6266C130.364 14.0939 130.423 14.555 130.454 15.0098C130.492 15.4646 130.51 15.988 130.51 16.5799V16.8603H125.725V17.4584C125.725 17.5394 125.725 17.6671 125.725 17.8416C125.713 18.0721 125.71 18.312 125.716 18.5612C125.728 18.8042 125.741 19.0441 125.753 19.2808C125.766 19.5176 125.8 19.745 125.856 19.9631C125.912 20.1749 125.981 20.3618 126.062 20.5238C126.143 20.6858 126.255 20.8135 126.398 20.907C126.548 21.0005 126.722 21.0472 126.921 21.0472C127.171 21.0472 127.376 21.0005 127.538 20.907C127.7 20.8073 127.819 20.6609 127.893 20.4677C127.974 20.2746 128.03 20.0815 128.062 19.8883C128.093 19.6952 128.111 19.4522 128.118 19.1593V18.6547H130.492V19.1313C130.435 20.4086 130.121 21.3743 129.548 22.0285C128.974 22.6827 128.093 23.0098 126.903 23.0098ZM125.725 15.664H128.099V14.9444C128.093 14.6266 128.074 14.3494 128.043 14.1126C128.012 13.8759 127.956 13.6391 127.875 13.4023C127.8 13.1656 127.682 12.9849 127.52 12.8603C127.358 12.7357 127.158 12.6734 126.921 12.6734C126.678 12.6734 126.473 12.7388 126.305 12.8696C126.143 13.0005 126.021 13.1905 125.94 13.4397C125.865 13.6827 125.812 13.9226 125.781 14.1593C125.75 14.3961 125.731 14.6796 125.725 15.0098V15.664Z" fill="white"/>
</svg>
