<svg width="123" height="21" viewBox="0 0 123 21" fill="none" xmlns="http://www.w3.org/2000/svg">
<path d="M118.362 17.0465C117.97 16.609 117.637 16.1208 117.373 15.5948C116.956 14.7704 116.378 14.0386 115.676 13.4424C114.973 12.8462 114.159 12.3976 113.281 12.1233C112.514 11.8843 111.711 11.7829 110.909 11.8236C111.493 11.79 112.068 11.9798 112.518 12.3552C112.969 12.7305 113.262 13.2635 113.339 13.8474C113.55 15.109 114.105 16.2867 114.943 17.2489C115.78 18.211 116.866 18.9198 118.08 19.296C119.468 19.7258 120.956 19.7026 122.33 19.2299C120.8 18.9784 119.4 18.2082 118.362 17.0465Z" fill="white"/>
<path d="M108.52 11.6989C108.698 12.4778 109.012 13.2199 109.448 13.8916C109.13 13.4039 109.008 12.8155 109.105 12.2425C109.202 11.6695 109.513 11.1536 109.974 10.7965C110.955 9.99127 111.691 8.93166 112.101 7.73564C112.511 6.53962 112.578 5.25417 112.296 4.02244C111.973 2.61337 111.207 1.34259 110.11 0.393494C110.656 1.84357 110.688 3.43543 110.199 4.90568C110.011 5.46073 109.751 5.98883 109.425 6.4763C108.924 7.24206 108.582 8.09984 108.421 8.99886C108.259 9.89788 108.281 10.8199 108.485 11.7104L108.52 11.6989Z" fill="white"/>
<path d="M111.94 14.4109C111.681 14.935 111.236 15.3401 110.695 15.5448C110.154 15.7496 109.556 15.739 109.023 15.5151C107.846 15.0673 106.571 14.9606 105.338 15.2069C104.106 15.4532 102.965 16.0429 102.044 16.9099C100.993 17.903 100.28 19.2094 100.007 20.6409C100.985 19.4351 102.338 18.6041 103.844 18.2853C104.409 18.1677 104.987 18.1221 105.564 18.1497C106.468 18.1973 107.373 18.0603 108.224 17.7469C109.076 17.4335 109.857 16.95 110.521 16.3249C111.103 15.7762 111.586 15.1285 111.948 14.4109H111.94Z" fill="white"/>
<path d="M0.0927734 20.5493H3.37057L3.37057 12.5675C3.37057 11.6834 3.61244 10.9745 4.09619 10.4407C4.57993 9.90694 5.21381 9.64004 5.99781 9.64004C6.79849 9.64004 7.43237 9.90694 7.89943 10.4407C8.38318 10.9578 8.62505 11.6668 8.62505 12.5675V20.5493H11.9028V12.5675C11.9028 11.6834 12.1447 10.9745 12.6285 10.4407C13.1122 9.90694 13.7461 9.64004 14.5301 9.64004C15.3308 9.64004 15.9646 9.90694 16.4317 10.4407C16.9155 10.9578 17.1573 11.6668 17.1573 12.5675V20.5493H20.4351V11.7919C20.4351 10.7743 20.2099 9.88191 19.7595 9.11459C19.3258 8.33059 18.7337 7.72174 17.983 7.28803C17.2324 6.85433 16.3733 6.63748 15.4058 6.63748C14.5051 6.63748 13.6877 6.82097 12.9537 7.18795C12.2365 7.55493 11.6443 8.1054 11.1772 8.83936C10.7769 8.17212 10.2014 7.63833 9.45075 7.23799C8.71679 6.83765 7.89109 6.63748 6.97364 6.63748C6.12292 6.63748 5.36393 6.80429 4.6967 7.13791C4.02946 7.47152 3.5207 7.97195 3.1704 8.63919V6.93774H0.0927734L0.0927734 20.5493Z" fill="white"/>
<path d="M27.3367 20.8496C29.1049 20.8496 30.5228 20.2658 31.5903 19.0981V20.5493H34.693V11.4916C34.693 10.5408 34.4511 9.69842 33.9674 8.96446C33.4836 8.23051 32.8164 7.66335 31.9657 7.26301C31.1316 6.84599 30.1558 6.63748 29.0382 6.63748C27.6703 6.63748 26.4526 6.96276 25.385 7.61331C24.3175 8.26387 23.5835 9.12293 23.1832 10.1905L25.8604 11.4916C26.1107 10.8744 26.5027 10.3823 27.0365 10.0154C27.5702 9.6317 28.1958 9.43987 28.9131 9.43987C29.6637 9.43987 30.2642 9.64004 30.7146 10.0404C31.1817 10.424 31.4152 10.9078 31.4152 11.4916V11.942L27.3617 12.5926C25.7604 12.8595 24.576 13.3682 23.8087 14.1189C23.0414 14.8695 22.6577 15.812 22.6577 16.9463C22.6577 18.1473 23.0831 19.0981 23.9338 19.7987C24.7845 20.4993 25.9188 20.8496 27.3367 20.8496ZM26.0606 16.8212C26.0606 15.8704 26.7028 15.2698 27.9873 15.0196L31.4152 14.4441V14.9946C31.4152 15.9287 31.0899 16.7211 30.4394 17.3716C29.8055 18.0222 28.9714 18.3475 27.9372 18.3475C27.3867 18.3475 26.9364 18.214 26.5861 17.9471C26.2358 17.6636 26.0606 17.2882 26.0606 16.8212Z" fill="white"/>
<path d="M37.7225 20.5493H41.0003V12.9679C41.0003 11.9337 41.2839 11.133 41.851 10.5658C42.4349 9.982 43.1855 9.69008 44.103 9.69008H45.279V6.78761H44.4783C43.6442 6.78761 42.9103 6.93774 42.2764 7.23799C41.6425 7.53825 41.1504 8.08038 40.8001 8.86438V6.93774L37.7225 6.93774V20.5493Z" fill="white"/>
<path d="M53.6529 20.6995C54.2034 20.6995 54.7455 20.6578 55.2793 20.5744V17.747C54.9623 17.797 54.6704 17.822 54.4035 17.822C53.6029 17.822 53.019 17.6385 52.652 17.2715C52.2851 16.9046 52.1016 16.3791 52.1016 15.6952V9.86523H55.2292V6.93774H52.1016V3.83509H48.8238V4.88599C48.8238 5.55322 48.6403 6.06199 48.2733 6.41229C47.9063 6.76259 47.3892 6.93774 46.722 6.93774H46.4718V9.86523H48.8238V15.8704C48.8238 17.3883 49.2408 18.5727 50.0748 19.4234C50.9256 20.2741 52.1183 20.6995 53.6529 20.6995Z" fill="white"/>
<path d="M57.7836 5.41144H61.0614V1.90845H57.7836V5.41144ZM57.7836 20.5493H61.0614V6.93774H57.7836V20.5493Z" fill="white"/>
<path d="M64.0878 20.5493H67.3656V12.5675C67.3656 11.6834 67.6158 10.9745 68.1162 10.4407C68.6333 9.90694 69.3005 9.64004 70.1179 9.64004C70.9353 9.64004 71.5942 9.90694 72.0946 10.4407C72.6117 10.9578 72.8703 11.6668 72.8703 12.5675V20.5493H76.1481V11.7919C76.1481 10.7743 75.9312 9.88191 75.4975 9.11459C75.0638 8.33059 74.4549 7.72174 73.6709 7.28803C72.9036 6.85433 72.0195 6.63748 71.0187 6.63748C70.168 6.63748 69.4006 6.80429 68.7167 7.13791C68.0495 7.47152 67.5324 7.96361 67.1654 8.61417V6.93774H64.0878V20.5493Z" fill="white"/>
<path d="M85.5754 20.8496C86.8932 20.8496 88.0942 20.5493 89.1785 19.9488C90.2628 19.3316 91.1302 18.4893 91.7807 17.4217C92.4313 16.3374 92.7566 15.1114 92.7566 13.7435C92.7566 12.3757 92.4313 11.158 91.7807 10.0904C91.1468 9.02285 90.2878 8.18046 89.2035 7.56327C88.1193 6.94608 86.9099 6.63748 85.5754 6.63748C84.2243 6.63748 83.0066 6.94608 81.9223 7.56327C80.8381 8.18046 79.9706 9.02285 79.3201 10.0904C78.6862 11.158 78.3693 12.3757 78.3693 13.7435C78.3693 15.1114 78.6862 16.3291 79.3201 17.3967C79.9706 18.4642 80.8381 19.3066 81.9223 19.9238C83.0232 20.541 84.241 20.8496 85.5754 20.8496ZM85.5754 17.847C84.8415 17.847 84.1826 17.6719 83.5987 17.3216C83.0316 16.9713 82.5812 16.4875 82.2476 15.8704C81.9307 15.2365 81.7722 14.5275 81.7722 13.7435C81.7722 12.9595 81.9307 12.2589 82.2476 11.6417C82.5812 11.0246 83.0316 10.5408 83.5987 10.1905C84.1826 9.82353 84.8415 9.64004 85.5754 9.64004C86.3094 9.64004 86.9516 9.82353 87.5021 10.1905C88.0692 10.5408 88.5113 11.0246 88.8282 11.6417C89.1618 12.2589 89.3286 12.9595 89.3286 13.7435C89.3286 14.5275 89.1618 15.2365 88.8282 15.8704C88.5113 16.4875 88.0692 16.9713 87.5021 17.3216C86.9516 17.6719 86.3094 17.847 85.5754 17.847Z" fill="white"/>
</svg>
