<svg width="126" height="26" viewBox="0 0 126 26" fill="none" xmlns="http://www.w3.org/2000/svg">
<path d="M5.41769 8.85664L8.49855 7.07984L6.77886 4.10288H22.952L14.8681 18.1096L13.1484 15.1274L10.0676 16.9094L14.8681 25.2221L29.1137 0.544067L0.617188 0.544067L5.41769 8.85664Z" fill="white"/>
<path d="M41.8955 20.7001L48.0466 6.10437L45.1066 6.10437L40.7696 16.6967L36.4117 6.10437H33.4717L39.6228 20.7001H41.8955Z" fill="white"/>
<path d="M51.5245 6.10437V20.7001H62.3879V18.1146H54.3186V14.6116L61.1369 14.6116V12.0261H54.3186V8.68991H62.2837V6.10437H51.5245Z" fill="white"/>
<path d="M66.3972 6.10437V20.7001H69.1913V15.5499H72.59L75.6551 20.7001H78.7619L75.4257 15.0703C77.1147 14.3197 78.199 12.7142 78.199 10.8167C78.199 9.48225 77.7194 8.35629 76.7394 7.45969C75.7802 6.56309 74.5917 6.10437 73.153 6.10437H66.3972ZM73.153 8.68991C74.3832 8.68991 75.2798 9.58651 75.2798 10.8167C75.2798 12.0469 74.3832 12.9644 73.153 12.9644H69.1913V8.68991H73.153Z" fill="white"/>
<path d="M86.2333 8.68991V20.7001H89.0482V8.68991H93.8857V6.10437H81.3959V8.68991H86.2333Z" fill="white"/>
<path d="M97.6902 6.10437V20.7001H108.554V18.1146H100.484V14.6116H107.303V12.0261L100.484 12.0261V8.68991L108.449 8.68991V6.10437L97.6902 6.10437Z" fill="white"/>
<path d="M116.962 13.2563L111.541 20.7001L114.898 20.7001L118.631 15.5499L122.363 20.7001H125.699L120.299 13.2563L125.491 6.10437H122.154L118.631 10.9627L115.107 6.10437H111.75L116.962 13.2563Z" fill="white"/>
</svg>
