<svg width="119" height="23" viewBox="0 0 119 23" fill="none" xmlns="http://www.w3.org/2000/svg">
<path d="M2.83469 21.7356L2.83469 7.79593L2.67483 4.95045L4.59313 7.79593L14.4084 21.7356H16.9022V0.314553H14.1207V13.9984L14.2806 17.2596L12.0745 13.9345L2.51497 0.314553L0.0531522 0.314553L0.0531522 21.7356H2.83469ZM24.9112 22.0553C28.1083 22.0553 29.7709 19.7533 30.2824 17.7072V18.7942C30.2824 20.9683 31.4334 21.7356 33.032 21.7356H34.8224V19.2098H33.8313C33.2558 19.2098 32.968 18.986 32.968 18.2507V11.8883C32.968 8.21156 30.9218 5.94157 27.1172 5.94157C23.6643 5.94157 21.3623 7.89185 20.4351 9.49043L22.3214 11.4407C23.1207 9.74621 24.5914 8.46734 26.7975 8.46734C29.2273 8.46734 30.0906 9.81015 30.1865 11.6325L24.5914 14.1263C22.3854 15.1175 20.8188 16.4283 20.8188 18.5065C20.8188 20.5526 22.2895 22.0553 24.9112 22.0553ZM23.6323 18.0588C23.6323 17.0997 24.3037 16.4603 25.7744 15.7569L30.2824 13.6468V15.7889C30.2824 18.0269 28.428 19.7533 25.8064 19.7533C24.3676 19.7533 23.6323 19.1139 23.6323 18.0588ZM42.7856 22.0873C44.9277 22.0873 46.3984 21.0962 47.0698 20.0411L46.1426 17.2915C45.727 18.2507 44.7678 19.4017 43.393 19.4017C42.1781 19.4017 41.2509 18.9221 41.2509 16.9398V8.43537H46.3344V6.26129H41.2509V2.23286L38.4694 4.27904V6.26129H35.9756V8.43537H38.4694V17.7711C38.4694 20.4248 40.2598 22.0873 42.7856 22.0873ZM51.8775 21.7356V12.9753C51.8775 10.3217 53.668 7.98776 55.6502 7.98776C56.7692 7.98776 57.2488 8.75508 57.2488 9.65029C57.2488 10.5135 56.8332 11.4727 56.3216 11.9203H59.3589C59.6147 11.5366 59.9664 10.5775 59.9664 9.26663C59.9664 7.09255 58.3678 5.9096 56.7053 5.9096C54.0836 5.9096 52.485 7.98776 51.8775 10.3856V6.26129H49.096V21.7356H51.8775ZM68.3807 22.0553C72.6649 22.0553 75.7022 18.8901 75.7022 13.9984C75.7022 9.10677 72.6649 5.94157 68.3807 5.94157C64.0965 5.94157 61.0911 9.10677 61.0911 13.9984C61.0911 18.8901 64.0965 22.0553 68.3807 22.0553ZM68.3807 19.7214C65.759 19.7214 63.9366 17.899 63.9366 13.9984C63.9366 10.0659 65.759 8.27551 68.3807 8.27551C71.0343 8.27551 72.8887 10.0659 72.8887 13.9984C72.8887 17.899 71.0343 19.7214 68.3807 19.7214ZM81.9759 21.7356V12.9753C81.9759 10.3856 83.0629 8.30748 85.3969 8.30748C87.7308 8.30748 88.7859 9.42649 88.7859 11.6965V21.7356H91.5674V12.9753C91.5674 10.3856 92.6544 8.30748 95.0204 8.30748C97.3223 8.30748 98.4094 9.42649 98.4094 11.6965V21.7356H101.159V11.0251C101.159 7.76396 99.5923 5.94157 96.555 5.94157C93.7415 5.94157 92.1429 8.01973 91.5354 10.4816C91.3756 7.57213 89.809 5.94157 86.9635 5.94157C84.1819 5.94157 82.5834 7.98776 81.9759 10.3537V6.26129H79.1944V21.7356H81.9759ZM108.556 22.0553C111.753 22.0553 113.416 19.7533 113.927 17.7072V18.7942C113.927 20.9683 115.078 21.7356 116.677 21.7356H118.467V19.2098H117.476C116.9 19.2098 116.613 18.986 116.613 18.2507V11.8883C116.613 8.21156 114.567 5.94157 110.762 5.94157C107.309 5.94157 105.007 7.89185 104.08 9.49043L105.966 11.4407C106.765 9.74621 108.236 8.46734 110.442 8.46734C112.872 8.46734 113.735 9.81015 113.831 11.6325L108.236 14.1263C106.03 15.1175 104.463 16.4283 104.463 18.5065C104.463 20.5526 105.934 22.0553 108.556 22.0553ZM107.277 18.0588C107.277 17.0997 107.948 16.4603 109.419 15.7569L113.927 13.6468V15.7889C113.927 18.0269 112.073 19.7533 109.451 19.7533C108.012 19.7533 107.277 19.1139 107.277 18.0588Z" fill="white"/>
</svg>
