<svg width="72" height="22" viewBox="0 0 72 22" fill="none" xmlns="http://www.w3.org/2000/svg">
<path d="M13.6483 5.36548C10.9025 5.36548 5.40215 3.13952 5.40215 0.393494H5.36149C5.36149 2.59128 6.23453 4.69905 7.78858 6.25315C9.34261 7.80725 11.4503 8.68038 13.6481 8.68046C14.9668 8.68046 16.2315 9.2043 17.164 10.1368C18.0965 11.0692 18.6203 12.3339 18.6203 13.6526C18.6206 14.9712 18.097 16.2361 17.1647 17.1687C16.2324 18.1014 14.9678 18.6255 13.6492 18.6258C12.3304 18.626 11.0656 18.1023 10.133 17.1701C9.20031 16.2378 8.6762 14.9732 8.67595 13.6545C8.67591 12.5662 8.46154 11.4886 8.04505 10.4832C7.62856 9.47781 7.01812 8.56427 6.24857 7.79477C5.47902 7.02527 4.56545 6.41488 3.56 5.99845C2.55457 5.58203 1.47694 5.36772 0.388672 5.36776V5.4081C3.13418 5.4081 5.36015 10.906 5.36118 13.6524H5.36066C5.36065 15.2915 5.84664 16.8937 6.75719 18.2565C7.66775 19.6193 8.96197 20.6815 10.4762 21.3087C11.9904 21.936 13.6566 22.1002 15.2642 21.7804C16.8717 21.4607 18.3483 20.6715 19.5073 19.5127C20.6663 18.3538 21.4556 16.8772 21.7755 15.2697C22.0954 13.6622 21.9313 11.996 21.3042 10.4817C20.677 8.96741 19.615 7.67309 18.2523 6.76242C16.8895 5.85174 15.2873 5.36561 13.6483 5.36548Z" fill="white"/>
<path d="M30.0464 20.7563C30.0464 21.0134 30.2778 21.2449 30.535 21.2449H31.8208C32.1294 21.2449 32.5409 21.142 32.5409 20.7563V13.0928H37.4527V20.7563C37.4527 21.0134 37.6842 21.2449 37.9413 21.2449H39.4072C39.6643 21.2449 39.8958 21.0134 39.8958 20.7563V11.447C39.8958 11.1898 39.6643 10.9583 39.4072 10.9583H32.5409V7.76951C32.5409 5.99508 33.621 5.24931 34.6753 5.24931C35.8069 5.24931 37.1184 5.94365 37.3499 6.07223C37.6327 6.22653 37.8642 6.25225 38.0185 5.94365L38.6614 4.78641C38.79 4.58068 38.7385 4.27209 38.5328 4.1435C37.9928 3.80919 36.3983 2.98627 34.6753 2.98627C32.1294 2.98627 30.0464 4.70927 30.0464 7.76951V10.9583H28.8377C28.5549 10.9583 28.3491 11.1641 28.3491 11.447V12.6042C28.3491 12.8614 28.5549 13.0928 28.8377 13.0928H30.0464V20.7563Z" fill="white"/>
<path d="M43.2375 20.7563C43.2375 21.0134 43.4689 21.2449 43.7261 21.2449H44.9605C45.372 21.2449 45.6548 21.1935 45.6548 20.7563V14.2243C45.7577 14.0443 46.4778 12.9642 47.9693 12.9642C48.3036 12.9642 48.6894 13.0671 48.8437 13.1442C49.0751 13.2471 49.3323 13.1957 49.4609 12.9128L50.078 11.6527C50.3609 10.9583 49.178 10.7012 48.2008 10.7012C46.3235 10.7012 45.372 11.9356 45.1919 12.1927L44.9091 11.3184C44.8576 11.1126 44.6519 10.9583 44.4719 10.9583H43.7261C43.4689 10.9583 43.2375 11.1898 43.2375 11.447V20.7563Z" fill="white"/>
<path d="M51.0555 16.1016C51.0555 19.059 53.1128 21.5021 56.2245 21.5021C57.9475 21.5021 59.2847 20.8591 60.0305 20.2162C60.3391 19.9591 60.2619 19.7533 60.0819 19.5476L59.3619 18.5704C59.1561 18.3132 58.9761 18.4161 58.6675 18.5961C58.1532 18.9304 57.3046 19.3419 56.3788 19.3419C54.7072 19.3419 53.4985 17.9789 53.4214 16.5902H60.4162C60.6477 16.5902 60.8534 16.4102 60.8791 16.153C60.9048 15.973 60.9306 15.6387 60.9306 15.4587C60.9306 12.7071 58.8732 10.7012 56.1987 10.7012C53.1128 10.7012 51.0555 13.1957 51.0555 16.1016ZM53.55 14.9701C53.7043 13.6843 54.7843 12.6813 56.173 12.6813C57.4331 12.6813 58.4618 13.7357 58.5389 14.9701L53.55 14.9701Z" fill="white"/>
<path d="M63.4037 20.7563C63.4037 21.0134 63.6352 21.2449 63.8924 21.2449H65.3582C65.6154 21.2449 65.8468 21.0134 65.8468 20.7563V3.73204C65.8468 3.47488 65.6154 3.24343 65.3582 3.24343H63.8924C63.6352 3.24343 63.4037 3.47488 63.4037 3.73204V20.7563Z" fill="white"/>
<path d="M70.3628 6.76657C71.2115 6.76657 71.8801 6.09795 71.8801 5.27502C71.8801 4.42638 71.2115 3.75776 70.3628 3.75776C69.5399 3.75776 68.897 4.42638 68.897 5.27502C68.897 6.09795 69.5399 6.76657 70.3628 6.76657ZM69.1799 20.7563C69.1799 21.0134 69.4113 21.2449 69.6685 21.2449H71.1343C71.3915 21.2449 71.6229 21.0134 71.6229 20.7563V11.447C71.6229 11.1898 71.3915 10.9583 71.1343 10.9583H69.6685C69.4113 10.9583 69.1799 11.1898 69.1799 11.447V20.7563Z" fill="white"/>
</svg>
