<svg width="116" height="27" viewBox="0 0 116 27" fill="none" xmlns="http://www.w3.org/2000/svg">
<path d="M22.5166 10.179L22.5012 10.1636C22.5 10.1628 22.499 10.1616 22.4984 10.1603L12.8824 0.544128L3.26662 10.16C3.26552 10.1612 3.2649 10.1626 3.26378 10.1634L3.24791 10.1787C1.77752 11.6574 0.843569 13.5851 0.594526 15.6555C0.345483 17.7259 0.795643 19.8202 1.87344 21.6054C2.95124 23.3906 4.59482 24.7643 6.54293 25.508C8.49102 26.2518 10.6318 26.323 12.625 25.7103C12.7928 25.659 12.972 25.659 13.1398 25.7103C15.1328 26.3228 17.2735 26.2515 19.2215 25.5077C21.1695 24.7638 22.8129 23.3902 23.8906 21.6051C24.9683 19.82 25.4185 17.7259 25.1696 15.6557C24.9206 13.5854 23.9868 11.6577 22.5166 10.179ZM6.68589 16.5201C6.63908 16.5669 6.60195 16.6225 6.57664 16.6836C6.55131 16.7447 6.53827 16.8102 6.53828 16.8764C6.55539 18.5736 7.03503 20.2339 7.92557 21.6788C7.9458 21.7115 7.95515 21.7499 7.95228 21.7883C7.94941 21.8266 7.93447 21.8631 7.90959 21.8926C7.88472 21.922 7.85119 21.9427 7.81379 21.9519C7.77639 21.9611 7.73704 21.9582 7.70139 21.9437C7.0319 21.6621 6.42371 21.2528 5.91082 20.7386C4.85974 19.6873 4.26884 18.2618 4.26788 16.7752C4.26692 15.2886 4.856 13.8624 5.90574 12.8098L12.8824 5.83376L19.8588 12.8098C20.9087 13.8623 21.498 15.2885 21.497 16.7752C21.4961 18.2618 20.9051 19.6873 19.854 20.7386C19.341 21.2528 18.7329 21.6621 18.0635 21.9437C18.0278 21.9582 17.9884 21.9611 17.9511 21.9519C17.9137 21.9427 17.8802 21.9219 17.8552 21.8926C17.8304 21.8631 17.8153 21.8266 17.8125 21.7881C17.8096 21.7498 17.8189 21.7114 17.8392 21.6786C18.7299 20.2339 19.2098 18.5736 19.2272 16.8764C19.2272 16.8102 19.214 16.7447 19.1886 16.6835C19.1631 16.6223 19.1259 16.5668 19.0789 16.5199L15.7791 13.0198C15.7462 12.9924 15.7048 12.9774 15.662 12.9774C15.6193 12.9774 15.5778 12.9924 15.545 13.0198C15.5121 13.0471 15.49 13.0852 15.4823 13.1273C15.4746 13.1694 15.482 13.2128 15.5031 13.25C16.7847 15.5692 15.6826 18.9005 13.8448 20.7386L13.8351 20.7483C13.5814 20.9992 13.239 21.1399 12.8822 21.1398C12.5254 21.1396 12.183 20.9987 11.9295 20.7477L11.9206 20.7386C10.0821 18.9005 8.9806 15.5696 10.2624 13.2505C10.2835 13.2133 10.2908 13.1699 10.2832 13.1278C10.2755 13.0857 10.2533 13.0476 10.2205 13.0203C10.1876 12.9929 10.1462 12.9778 10.1035 12.9778C10.0607 12.9778 10.0193 12.9929 9.98642 13.0203L6.68589 16.5201Z" fill="white"/>
<path d="M46.1738 8.57496H49.3563L46.0552 19.605H42.418L40.8762 13.0819L39.3146 19.605H35.6775L32.3763 8.57496H35.7565L37.4763 16.3237L39.1762 8.57496H42.7541L44.4541 16.3237L46.1738 8.57496Z" fill="white"/>
<path d="M57.6231 16.1062C58.1107 15.6318 58.3545 14.9597 58.3545 14.09C58.3545 13.2202 58.1107 12.5547 57.6231 12.0935C57.1355 11.6191 56.5755 11.3819 55.9429 11.3819C55.3104 11.3819 54.7503 11.6191 54.2627 12.0935C53.7751 12.5679 53.5313 13.24 53.5313 14.1098C53.5313 14.9795 53.7751 15.6516 54.2627 16.126C54.7503 16.5872 55.3104 16.8178 55.9429 16.8178C56.5755 16.8178 57.1355 16.5806 57.6231 16.1062ZM51.5546 18.162C50.5794 17.1078 50.0919 15.757 50.0919 14.1098C50.0919 12.4625 50.5794 11.1117 51.5546 10.0575C52.5298 8.99007 53.7158 8.45636 55.1127 8.45636C56.5228 8.45636 57.6034 8.97689 58.3545 10.018V8.57496H61.7347V19.605H58.3545V18.0039C57.5375 19.1635 56.4437 19.7434 55.0732 19.7434C53.7026 19.7434 52.5298 19.2163 51.5546 18.162Z" fill="white"/>
<path d="M63.3011 8.57496H66.8987L69.4091 16.7783L71.9195 8.57496L75.5172 8.57496L71.6033 19.605H67.215L63.3011 8.57496Z" fill="white"/>
<path d="M81.7631 19.7434C80.1554 19.7434 78.8376 19.2294 77.8097 18.2015C76.7818 17.1605 76.2678 15.7834 76.2678 14.0702C76.2678 12.3571 76.7752 10.9931 77.7899 9.97843C78.8178 8.96371 80.1422 8.45636 81.7631 8.45636C83.384 8.45636 84.7282 8.95712 85.7956 9.95866C86.863 10.9602 87.3967 12.3505 87.3967 14.1295C87.3967 14.5117 87.3704 14.8675 87.3177 15.1969H79.7271C79.793 15.6845 80.0104 16.0865 80.3794 16.4027C80.7484 16.7058 81.1437 16.8574 81.5654 16.8574C82.0003 16.8574 82.3232 16.8178 82.534 16.7388C82.7449 16.6465 82.8964 16.5609 82.9887 16.4818C83.0941 16.3896 83.2259 16.2446 83.384 16.0469H87.0409C86.7246 17.1539 86.0921 18.05 85.1433 18.7353C84.1945 19.4073 83.0677 19.7434 81.7631 19.7434ZM83.8782 13.0819C83.8255 12.5679 83.6014 12.1528 83.2061 11.8365C82.8108 11.5071 82.3429 11.3424 81.8026 11.3424C81.2623 11.3424 80.8077 11.5071 80.4387 11.8365C80.0697 12.1528 79.8391 12.5679 79.7468 13.0819H83.8782Z" fill="white"/>
<path d="M92.948 8.57496V10.6307C93.7387 9.18115 94.793 8.45636 96.1108 8.45636V11.8958H95.2806C94.5031 11.8958 93.9166 12.0803 93.5213 12.4493C93.1391 12.8183 92.948 13.464 92.948 14.3865V19.605H89.5679V8.57496H92.948Z" fill="white"/>
<path d="M101.029 7.32963C100.647 7.7118 100.179 7.90288 99.6259 7.90288C99.0725 7.90288 98.6046 7.7118 98.2225 7.32963C97.8403 6.94747 97.6492 6.47965 97.6492 5.92617C97.6492 5.35951 97.8403 4.8851 98.2225 4.50293C98.6046 4.12077 99.0725 3.92969 99.6259 3.92969C100.179 3.92969 100.647 4.12077 101.029 4.50293C101.412 4.8851 101.603 5.35951 101.603 5.92617C101.603 6.47965 101.412 6.94747 101.029 7.32963ZM97.9457 19.605V8.57496L101.326 8.57496V19.605H97.9457Z" fill="white"/>
<path d="M110.919 16.1458C111.367 15.6714 111.591 14.9861 111.591 14.09C111.591 13.1939 111.36 12.5152 110.899 12.054C110.438 11.5796 109.891 11.3424 109.258 11.3424C108.626 11.3424 108.079 11.5796 107.618 12.054C107.17 12.5152 106.945 13.1939 106.945 14.09C106.945 14.9861 107.176 15.6714 107.637 16.1458C108.112 16.6202 108.665 16.8574 109.298 16.8574C109.93 16.8574 110.471 16.6202 110.919 16.1458ZM105.166 18.1818C104.059 17.1407 103.506 15.7702 103.506 14.0702C103.506 12.3702 104.059 11.0129 105.166 9.99819C106.273 8.9703 107.644 8.45636 109.278 8.45636C110.912 8.45636 112.276 8.9703 113.37 9.99819C114.477 11.0129 115.03 12.3702 115.03 14.0702C115.03 15.7702 114.483 17.1407 113.39 18.1818C112.296 19.2228 110.932 19.7434 109.298 19.7434C107.664 19.7434 106.287 19.2228 105.166 18.1818Z" fill="white"/>
</svg>
