<svg width="113" height="23" viewBox="0 0 113 23" fill="none" xmlns="http://www.w3.org/2000/svg">
<path d="M22.1565 18.2076C21.9782 17.9237 21.7451 17.6783 21.4708 17.4856C21.1966 17.2929 20.8866 17.1568 20.5591 17.0852C19.3062 16.7938 18.2196 16.0183 17.5367 14.9282C16.8538 13.8381 16.6301 12.5219 16.9146 11.2674C17.024 10.7826 16.9877 10.2762 16.8102 9.8119C16.6327 9.3476 16.322 8.9461 15.9171 8.65782C15.5122 8.36955 15.0311 8.20736 14.5343 8.19158C14.0375 8.17582 13.5471 8.30719 13.1247 8.56921C12.7023 8.83126 12.3668 9.21222 12.1602 9.66432C11.9537 10.1165 11.8853 10.6195 11.9637 11.1103C12.0421 11.6012 12.2638 12.0579 12.601 12.4231C12.9381 12.7884 13.3756 13.0459 13.8586 13.1633C14.4835 13.3042 15.0743 13.5671 15.5974 13.9368C16.1204 14.3066 16.5654 14.7759 16.9067 15.3179C17.248 15.86 17.479 16.4641 17.5864 17.0955C17.6938 17.727 17.6755 18.3735 17.5326 18.9979C17.448 19.4004 17.463 19.8175 17.5765 20.2128C17.69 20.6081 17.8985 20.9697 18.1838 21.2661C18.4691 21.5624 18.8225 21.7844 19.2132 21.9128C19.604 22.0413 20.0202 22.0722 20.4256 22.0029C20.8311 21.9336 21.2134 21.7662 21.5393 21.5153C21.8653 21.2644 22.1249 20.9376 22.2955 20.5633C22.4662 20.1891 22.5428 19.7788 22.5185 19.3682C22.4943 18.9576 22.37 18.5591 22.1565 18.2076Z" fill="white"/>
<path d="M6.64905 15.4077C7.09028 15.6485 7.59335 15.752 8.09376 15.7048C8.5942 15.6577 9.06909 15.4621 9.45759 15.1432C9.8461 14.8243 10.1304 14.3965 10.2741 13.9149C10.4179 13.4332 10.4144 12.9196 10.2641 12.44C10.0737 11.8283 10.0059 11.1852 10.0645 10.5473C10.1232 9.90939 10.3071 9.28936 10.6059 8.72273C10.9046 8.15609 11.3123 7.65399 11.8055 7.24519C12.2987 6.83639 12.8677 6.529 13.4799 6.34056C13.9547 6.19183 14.3749 5.90597 14.6877 5.51898C15.0004 5.13199 15.1917 4.66114 15.2374 4.16567C15.2832 3.6702 15.1814 3.17227 14.9448 2.73456C14.7083 2.29682 14.3475 1.93883 13.908 1.70566C13.4684 1.47249 12.9697 1.37452 12.4747 1.42412C11.9796 1.4737 11.5102 1.6686 11.1256 1.98433C10.741 2.30003 10.4584 2.72245 10.3134 3.1984C10.1683 3.67434 10.1673 4.18257 10.3104 4.6591C10.686 5.88935 10.559 7.21835 9.95711 8.35516C9.3552 9.49198 8.32748 10.344 7.09884 10.7249C6.61381 10.8655 6.18216 11.1485 5.85978 11.5373C5.53741 11.926 5.33914 12.4026 5.29068 12.9053C5.24225 13.408 5.34582 13.9136 5.588 14.3568C5.83019 14.7999 6.19983 15.1602 6.64905 15.3909V15.4077Z" fill="white"/>
<path d="M13.1391 14.9955C12.8038 15.0073 12.4742 15.0859 12.1696 15.2266C11.865 15.3674 11.5915 15.5674 11.3652 15.8152C10.4872 16.7543 9.27314 17.3076 7.9884 17.354C6.70363 17.4005 5.45272 16.9364 4.50917 16.0632C4.26537 15.8345 3.97855 15.6565 3.66535 15.5396C3.35218 15.4226 3.01887 15.3692 2.68482 15.3822C2.27365 15.4016 1.87344 15.5214 1.51919 15.731C1.16491 15.9407 0.867371 16.2338 0.652486 16.5849C0.437571 16.936 0.311889 17.3343 0.286345 17.7452C0.260832 18.156 0.336229 18.5669 0.506018 18.9419C0.675806 19.3169 0.934767 19.6446 1.26035 19.8965C1.58594 20.1484 1.9682 20.3167 2.37382 20.3869C2.77943 20.457 3.19608 20.4268 3.58733 20.2989C3.97861 20.171 4.33261 19.9493 4.61845 19.6531C5.05328 19.1823 5.5767 18.8019 6.15875 18.5338C6.74082 18.2656 7.37006 18.1149 8.01045 18.0903C8.65084 18.0657 9.28982 18.1677 9.89073 18.3904C10.4916 18.6131 11.0427 18.9522 11.5124 19.3883C11.8181 19.6646 12.1869 19.8617 12.5865 19.9624C12.9861 20.0632 13.4042 20.0646 13.8044 19.9663C14.2046 19.8681 14.5746 19.6733 14.8822 19.399C15.1897 19.1247 15.4253 18.7792 15.5684 18.3928C15.7115 18.0063 15.7578 17.5907 15.7031 17.1823C15.6484 16.7739 15.4945 16.385 15.2548 16.0498C15.0151 15.7146 14.697 15.4433 14.3282 15.2595C13.9593 15.0757 13.5511 14.985 13.1391 14.9955Z" fill="white"/>
<path d="M39.646 18.3708C41.0003 18.3708 41.8444 17.8792 42.1784 16.8959C42.2897 16.5248 42.3732 16.0517 42.4288 15.4766L41.7053 15.4488C41.594 16.7289 41.2693 17.3782 40.7313 17.3968C40.3231 17.3597 40.1191 16.8959 40.1191 16.0054V10.1892C40.1191 7.87012 39.043 6.44158 36.8909 5.90356C36.3344 5.7737 35.7314 5.70876 35.0821 5.70876C32.5589 5.70876 30.9727 6.25606 30.3234 7.35065C30.1564 7.62894 30.0729 7.92578 30.0729 8.24117C30.0729 8.96471 30.4161 9.41925 31.1026 9.60477C31.2695 9.66043 31.4458 9.68826 31.6313 9.68826C32.4291 9.68826 32.9671 9.29866 33.2454 8.51945C33.2825 8.40814 33.3381 8.22262 33.4124 7.96288C33.6164 7.22078 33.8762 6.75697 34.1916 6.57145C34.3956 6.47869 34.6275 6.43231 34.8873 6.43231C35.7592 6.43231 36.288 6.96105 36.4735 8.01854C36.5477 8.40814 36.5848 8.87195 36.5848 9.40997V11.2188C31.8168 11.3116 29.4236 12.5732 29.405 15.0035C29.405 16.6547 30.1286 17.7122 31.5757 18.176C32.0024 18.3059 32.4755 18.3708 32.9949 18.3708C34.5719 18.3708 35.7314 17.7771 36.4735 16.5898C36.6219 16.3486 36.7425 16.0981 36.8353 15.8384C37.2249 17.4339 38.1618 18.278 39.646 18.3708ZM34.442 17.1742C33.5144 17.1371 33.0413 16.3115 33.0228 14.6974C33.0228 13.473 33.5237 12.6752 34.5255 12.3041C35.0635 12.1372 35.75 12.0351 36.5848 11.998V14.6974C36.2323 15.9961 35.6665 16.7938 34.8873 17.0907C34.7203 17.1463 34.5719 17.1742 34.442 17.1742Z" fill="white"/>
<path d="M50.3322 17.369H48.2728V11.358C48.4027 9.40997 48.8758 8.22262 49.6921 7.79591C49.822 7.74025 49.9426 7.71242 50.0539 7.71242C50.258 7.71242 50.4806 7.92578 50.7218 8.35248C51.0557 8.94616 51.4175 9.31721 51.8071 9.46563C51.9926 9.52129 52.1967 9.54911 52.4193 9.54911C53.1614 9.54911 53.6901 9.19662 54.0055 8.49163C54.1169 8.25044 54.1725 7.99999 54.1725 7.74025C54.1725 6.81263 53.718 6.22823 52.8089 5.98705C52.5863 5.93139 52.3544 5.90356 52.1132 5.90356C50.9629 5.90356 49.9518 6.3581 49.0799 7.26717C48.6903 7.71242 48.3934 8.19479 48.1894 8.71425L47.9946 6.12619H43.1245V6.84974H44.7386V15.9219C44.7386 16.7382 44.4139 17.202 43.7646 17.3133C43.5791 17.3504 43.3657 17.369 43.1245 17.369V18.0925H51C51 17.6658 50.8795 17.4339 50.6383 17.3968C50.5455 17.3782 50.4435 17.369 50.3322 17.369Z" fill="white"/>
<path d="M58.959 12.0537C58.959 9.45635 59.2744 7.79591 59.9052 7.07237C60.2948 6.64566 60.8421 6.43231 61.5471 6.43231C62.7345 6.43231 63.4951 7.03526 63.829 8.24117C64.0517 9.02037 64.163 10.2541 64.163 11.9424C64.163 14.651 63.8105 16.3579 63.1055 17.0628C62.6974 17.4524 62.1686 17.6472 61.5193 17.6472C60.369 17.6472 59.6269 17.0536 59.293 15.8662C59.0704 15.0685 58.959 13.7976 58.959 12.0537ZM61.6862 5.70876C59.4043 5.70876 57.6511 6.48796 56.4266 8.04637C55.5732 9.15951 55.1465 10.4582 55.1465 11.9424C55.1465 14.0388 55.8701 15.6992 57.3171 16.9237C58.4674 17.8884 59.8403 18.3708 61.4358 18.3708C63.625 18.3708 65.3411 17.5823 66.5841 16.0054C67.5117 14.818 67.9755 13.4451 67.9755 11.8867C67.9755 9.80885 67.2427 8.18551 65.7771 7.01671C64.6454 6.14474 63.2818 5.70876 61.6862 5.70876Z" fill="white"/>
<path d="M75.0162 17.369H74.5152L74.5431 10.1892C74.6544 8.72353 75.1367 7.76808 75.9902 7.32282C76.2313 7.19296 76.4725 7.12802 76.7137 7.12802C77.4001 7.12802 77.8918 7.55473 78.1886 8.40814C78.3185 8.81629 78.3834 9.27083 78.3834 9.77174V15.9219C78.3834 16.6825 78.2072 17.1371 77.8547 17.2855C77.6877 17.3411 77.4558 17.369 77.159 17.369V18.0925H83.0586C83.0586 17.6658 82.938 17.4339 82.6969 17.3968C82.5855 17.3782 82.4742 17.369 82.3629 17.369H81.8898V10.2448V10.05C82.0197 8.51018 82.5206 7.55473 83.3926 7.18368C83.5781 7.10947 83.7636 7.07237 83.9491 7.07237C84.7469 7.07237 85.2942 7.54545 85.591 8.49163C85.7024 8.88123 85.758 9.30793 85.758 9.77174V15.9219C85.758 16.6825 85.5818 17.1371 85.2293 17.2855C85.0623 17.3411 84.8304 17.369 84.5336 17.369V18.0925H90.8785C90.8785 17.6658 90.7579 17.4339 90.5167 17.3968C90.4054 17.3782 90.2941 17.369 90.1828 17.369H89.2644V10.1057C89.2644 8.28755 88.6615 6.99816 87.4556 6.23751C86.899 5.88501 86.296 5.70876 85.6467 5.70876C83.8471 5.72731 82.5021 6.59 81.6115 8.29683C81.1663 6.9796 80.3778 6.15402 79.2461 5.82008C78.9493 5.74587 78.6524 5.70876 78.3556 5.70876C76.5746 5.72731 75.2759 6.54362 74.4596 8.15768L74.3204 6.12619L69.3669 6.12619V6.84974L70.981 6.84974V15.9219C70.981 16.7753 70.5821 17.2484 69.7844 17.3411C69.6545 17.3597 69.5154 17.369 69.3669 17.369V18.0925H75.684C75.684 17.6658 75.5635 17.4339 75.3223 17.3968C75.2295 17.3782 75.1275 17.369 75.0162 17.369Z" fill="white"/>
<path d="M98.1696 17.369H97.1399V6.12619L91.9916 6.12619V6.84974H93.6057V15.9219C93.6057 16.7382 93.281 17.202 92.6317 17.3133C92.4462 17.3504 92.2328 17.369 91.9916 17.369V18.0925H98.8375C98.8375 17.6658 98.7169 17.4339 98.4757 17.3968C98.3829 17.3782 98.2809 17.369 98.1696 17.369ZM97.3904 2.48064C97.3904 1.66433 97.0286 1.06138 96.3051 0.67178C95.9897 0.486256 95.6557 0.393494 95.3032 0.393494C94.5055 0.393494 93.9025 0.755266 93.4944 1.47881C93.3274 1.7942 93.2439 2.12815 93.2439 2.48064C93.2439 3.29695 93.6057 3.89063 94.3292 4.26167C94.6446 4.42865 94.9693 4.51213 95.3032 4.51213C96.1195 4.51213 96.7225 4.16891 97.1121 3.48247C97.2976 3.16708 97.3904 2.83314 97.3904 2.48064Z" fill="white"/>
<path d="M99.5332 18.0925H103.735V17.369H101.787L105.127 13.1947L107.91 17.369H106.379V18.0925H112.807C112.807 17.6658 112.659 17.4339 112.362 17.3968C112.288 17.3782 112.204 17.369 112.112 17.369H111.555L107.492 11.2467L110.247 7.65677C110.618 7.15585 111.091 6.87757 111.666 6.82191C111.945 6.7848 112.112 6.67349 112.167 6.48796C112.186 6.37665 112.195 6.25606 112.195 6.12619H108.077V6.84974H109.885L107.019 10.5509L104.57 6.84974H106.101V6.12619H99.6445V6.84974H100.925L104.709 12.5268L101.426 16.5619C101.036 17.0257 100.563 17.304 100.006 17.3968C99.7465 17.4153 99.5981 17.5267 99.561 17.7307C99.5425 17.842 99.5332 17.9626 99.5332 18.0925Z" fill="white"/>
</svg>
