<svg width="132" height="27" viewBox="0 0 132 27" fill="none" xmlns="http://www.w3.org/2000/svg">
<path d="M4.80917 6.54086L6.31801 7.29528C6.59575 7.41659 6.89797 7.47125 7.20057 7.45488C7.50317 7.43851 7.79773 7.35156 8.06072 7.20098L9.48661 6.27304C9.73195 6.09496 9.93164 5.86128 10.0693 5.59116C10.207 5.32104 10.2788 5.02214 10.2787 4.71893L10.1882 3.01772C10.1552 2.71697 10.052 2.42814 9.88687 2.17457C9.72173 1.92101 9.49936 1.70978 9.23762 1.55791L7.72877 0.784631C7.4516 0.661887 7.14938 0.606135 6.84663 0.621865C6.54388 0.637594 6.24905 0.724352 5.98606 0.875161L4.56024 1.8031C4.31532 1.98163 4.11593 2.21539 3.97832 2.48543C3.84068 2.75544 3.76863 3.05415 3.76807 3.3572L3.8586 5.05842C3.88791 5.36328 3.98941 5.65675 4.15471 5.91454C4.32 6.17236 4.54436 6.38707 4.80917 6.54086Z" fill="white"/>
<path d="M13.9106 8.7435L12.4017 7.97022C12.1247 7.84895 11.823 7.79433 11.521 7.8107C11.219 7.82707 10.9251 7.91402 10.6628 8.06452L9.22183 8.99246C8.97781 9.17182 8.77906 9.40577 8.64153 9.67563C8.504 9.94545 8.43142 10.2437 8.42969 10.5466L8.52026 12.2478C8.55326 12.5486 8.65647 12.8374 8.82157 13.091C8.98671 13.3445 9.20908 13.5558 9.47079 13.7076L10.9796 14.462C11.2562 14.5847 11.5578 14.6405 11.86 14.6248C12.1621 14.609 12.4563 14.5223 12.7186 14.3715L14.1482 13.4435C14.3923 13.2634 14.591 13.0288 14.7285 12.7583C14.8661 12.4879 14.9386 12.1891 14.9403 11.8857L14.8498 10.1882C14.8152 9.89131 14.7124 9.60641 14.5495 9.35579C14.3866 9.10517 14.1679 8.89563 13.9106 8.7435Z" fill="white"/>
<path d="M18.566 15.9184L17.0571 15.1639C16.7799 15.0412 16.4777 14.9854 16.175 15.0011C15.8722 15.0169 15.5774 15.1036 15.3144 15.2545L13.8886 16.1824C13.6441 16.3613 13.4451 16.5952 13.3075 16.8651C13.1699 17.1351 13.0976 17.4335 13.0964 17.7365L13.187 19.4377C13.2231 19.7337 13.327 20.0173 13.4905 20.2665C13.6541 20.5158 13.8729 20.7239 14.13 20.8749L15.6389 21.6293C15.9166 21.7506 16.2188 21.8053 16.5214 21.7889C16.824 21.7725 17.1186 21.6856 17.3816 21.535L18.8112 20.6071C19.0554 20.4281 19.2541 20.1942 19.391 19.9242C19.528 19.6542 19.5994 19.3557 19.5996 19.053L19.5203 17.3819C19.4878 17.0801 19.3844 16.7901 19.2185 16.5358C19.0527 16.2815 18.8291 16.0699 18.566 15.9184Z" fill="white"/>
<path d="M7.44965 11.6933L7.37798 10.3693C7.37972 10.0664 7.45225 9.76818 7.58982 9.49836C7.72735 9.2285 7.92607 8.99456 8.17012 8.81519L10.9502 7.00836C11.2125 6.85785 11.5064 6.7709 11.8084 6.75453C12.1104 6.73816 12.412 6.79282 12.6891 6.91405L13.8735 7.51759C14.1508 7.64033 14.4529 7.69612 14.7557 7.68039C15.0585 7.66466 15.3533 7.57787 15.6162 7.42706L17.0421 6.49535C17.2868 6.31663 17.486 6.08283 17.6236 5.81283C17.7612 5.54286 17.8334 5.24429 17.8342 4.94124L17.7437 3.2438C17.7113 2.94237 17.6083 2.65278 17.4432 2.39854C17.278 2.14427 17.0553 1.93246 16.7931 1.78022L15.2843 1.00694C15.0066 0.885667 14.7044 0.831009 14.4017 0.84738C14.0991 0.863751 13.8046 0.950698 13.5416 1.10124L12.0856 2.01409C11.8413 2.19304 11.6427 2.42699 11.5057 2.69699C11.3688 2.967 11.2973 3.26545 11.2972 3.5682L11.3651 4.89221C11.365 5.19499 11.2935 5.49344 11.1565 5.76345C11.0196 6.03346 10.8209 6.2674 10.5767 6.44631L7.79668 8.25315C7.53369 8.40396 7.2389 8.49075 6.93615 8.50648C6.63337 8.52221 6.33118 8.46642 6.05397 8.34368L4.8733 7.74392C4.59609 7.62117 4.29391 7.56542 3.99112 7.58115C3.68837 7.59688 3.39358 7.68364 3.13059 7.83444L1.70474 8.76238C1.45982 8.94092 1.26046 9.17467 1.12282 9.44472C0.985173 9.71476 0.913163 10.0134 0.912598 10.3165L1.00313 12.0177C1.03527 12.3192 1.13813 12.6089 1.30327 12.8633C1.46845 13.1176 1.69127 13.3293 1.9537 13.4813L3.46254 14.2357C3.74024 14.357 4.04246 14.4117 4.34506 14.3953C4.64766 14.3789 4.94226 14.292 5.20525 14.1414L6.6311 13.2135C6.87614 13.041 7.07761 12.8138 7.2197 12.55C7.36176 12.2861 7.44048 11.9928 7.44965 11.6933Z" fill="white"/>
<path d="M22.3834 10.4186C22.3498 10.1175 22.2464 9.8284 22.0813 9.57431C21.9163 9.32022 21.6943 9.10815 21.4328 8.95504L19.924 8.20062C19.6462 8.07961 19.344 8.02511 19.0415 8.04148C18.7389 8.05785 18.4444 8.14464 18.1813 8.29492L16.7554 9.22286C16.5109 9.40181 16.3119 9.63564 16.1743 9.90558C16.0367 10.1755 15.9644 10.474 15.9633 10.777L16.035 12.1047C16.0338 12.4077 15.9615 12.7062 15.8239 12.9761C15.6863 13.246 15.4873 13.4799 15.2428 13.6589L12.4665 15.4619C12.2035 15.6125 11.909 15.6994 11.6064 15.7158C11.3038 15.7322 11.0015 15.6775 10.7238 15.5562L9.53937 14.9527C9.26231 14.8314 8.96069 14.7768 8.6587 14.7931C8.3567 14.8095 8.06278 14.8964 7.80043 15.047L6.35949 15.9712C6.11547 16.1505 5.91676 16.3844 5.77919 16.6543C5.64166 16.9241 5.56912 17.2224 5.56738 17.5253L5.65788 19.2264C5.69092 19.5272 5.79412 19.8161 5.95923 20.0696C6.12437 20.3232 6.34674 20.5344 6.60848 20.6863L8.11732 21.4596C8.39386 21.5823 8.69544 21.638 8.99758 21.6223C9.29977 21.6066 9.59391 21.5198 9.85626 21.369L11.2859 20.4411C11.5297 20.2615 11.7283 20.0275 11.8658 19.7577C12.0033 19.4879 12.076 19.1898 12.078 18.887L12.0064 17.5592C12.0072 17.2562 12.0794 16.9576 12.217 16.6876C12.3546 16.4176 12.5538 16.1838 12.7985 16.0051L15.5747 14.1983C15.8377 14.0475 16.1325 13.9607 16.4353 13.9449C16.738 13.9292 17.0402 13.985 17.3174 14.1077L18.4981 14.7075C18.7753 14.8302 19.0775 14.886 19.3803 14.8703C19.683 14.8545 19.9778 14.7678 20.2408 14.617L21.6705 13.689C21.9145 13.5099 22.113 13.2759 22.2499 13.0059C22.3868 12.736 22.4584 12.4376 22.4588 12.1349L22.3834 10.4186Z" fill="white"/>
<path d="M27.4482 3.61843H33.1031L35.7553 14.3526L38.4076 3.61843H44.3126L38.933 20.8331H32.5526L27.4482 3.61843Z" fill="white"/>
<path d="M49.8642 21.0333C48.463 21.0333 47.3704 20.5829 46.5864 19.6821C45.8024 18.7814 45.4104 17.5553 45.4104 16.004V8.29742H50.715V15.7788C50.715 16.1625 50.815 16.4627 51.0152 16.6796C51.2321 16.8797 51.5073 16.9798 51.8409 16.9798C52.1745 16.9798 52.5165 16.8797 52.8668 16.6796L53.142 20.1575C52.775 20.4411 52.2913 20.658 51.6908 20.8081C51.107 20.9582 50.4981 21.0333 49.8642 21.0333ZM48.0627 6.42082C47.2787 6.42082 46.6115 6.17895 46.061 5.6952C45.5272 5.19478 45.2603 4.58593 45.2603 3.86865C45.2603 3.15137 45.5439 2.55086 46.111 2.06711C46.6782 1.58336 47.3287 1.34149 48.0627 1.34149C48.83 1.34149 49.4889 1.59171 50.0394 2.09213C50.6065 2.59256 50.8901 3.18473 50.8901 3.86865C50.8901 4.60261 50.6065 5.21146 50.0394 5.6952C49.4722 6.17895 48.8133 6.42082 48.0627 6.42082Z" fill="white"/>
<path d="M54.5991 8.47257H59.8786V11.0247C60.2623 10.0406 60.7794 9.31496 61.43 8.84789C62.0972 8.36415 62.8729 8.12227 63.7569 8.12227L64.4826 12.2008C62.8979 12.2008 61.7302 12.3759 60.9796 12.7262C60.2456 13.0598 59.8786 13.5936 59.8786 14.3276V20.8331H54.5991V8.47257Z" fill="white"/>
<path d="M72.3465 21.0333C70.9453 21.0333 69.6942 20.758 68.5933 20.2076C67.509 19.6571 66.6583 18.8981 66.0411 17.9306C65.4406 16.9465 65.1403 15.8205 65.1403 14.5528C65.1403 13.285 65.4489 12.1674 66.0661 11.1999C66.6833 10.2157 67.5341 9.45675 68.6183 8.92296C69.7192 8.38917 70.9703 8.12227 72.3715 8.12227C73.7894 8.12227 75.0405 8.39751 76.1247 8.94798C77.2257 9.48177 78.0764 10.2324 78.6769 11.1999C79.2774 12.1674 79.5777 13.285 79.5777 14.5528C79.5777 15.8372 79.2691 16.9715 78.6519 17.9557C78.0514 18.9232 77.2006 19.6821 76.0997 20.2326C75.0154 20.7664 73.7644 21.0333 72.3465 21.0333ZM72.3965 17.2801C73.0805 17.2801 73.6393 17.0299 74.073 16.5294C74.5233 16.0123 74.7485 15.3534 74.7485 14.5528C74.7485 13.7521 74.5233 13.1015 74.073 12.6011C73.6393 12.084 73.0805 11.8254 72.3965 11.8254C71.7126 11.8254 71.1455 12.084 70.6951 12.6011C70.2614 13.1015 70.0445 13.7521 70.0445 14.5528C70.0445 15.3534 70.2614 16.0123 70.6951 16.5294C71.1455 17.0299 71.7126 17.2801 72.3965 17.2801Z" fill="white"/>
<path d="M88.5341 26.563C87.6167 26.563 86.7409 26.4713 85.9069 26.2878L86.3072 22.5846C86.9578 22.6847 87.5583 22.7347 88.1088 22.7347C89.143 22.7347 89.927 22.4261 90.4608 21.8089C90.9946 21.2084 91.3115 20.1909 91.4116 18.7563C90.4274 20.1409 88.9261 20.8331 86.9077 20.8331C85.8068 20.8331 84.7893 20.5495 83.8551 19.9824C82.9377 19.4152 82.2037 18.6479 81.6533 17.6804C81.1195 16.7129 80.8526 15.6537 80.8526 14.5027C80.8526 13.3351 81.1195 12.2675 81.6533 11.3C82.187 10.3158 82.9127 9.54015 83.8301 8.973C84.7642 8.40585 85.7818 8.12227 86.8827 8.12227C87.9002 8.12227 88.7843 8.38917 89.535 8.92296C90.3023 9.44007 90.8027 10.1407 91.0363 11.0247V8.12227L96.3158 8.12227V17.6554C96.3158 20.5746 95.6485 22.7848 94.3141 24.2861C92.9963 25.804 91.0696 26.563 88.5341 26.563ZM88.5341 17.0799C89.2014 17.0799 89.7768 16.8464 90.2606 16.3793C90.7443 15.8956 91.0029 15.3284 91.0363 14.6779V14.4777C91.0029 13.8438 90.736 13.285 90.2356 12.8013C89.7518 12.3175 89.1847 12.0756 88.5341 12.0756C87.8502 12.0756 87.2664 12.3259 86.7826 12.8263C86.2989 13.31 86.057 13.8939 86.057 14.5778C86.057 15.2617 86.2989 15.8539 86.7826 16.3543C87.2664 16.838 87.8502 17.0799 88.5341 17.0799Z" fill="white"/>
<path d="M104.38 21.0333C103.296 21.0333 102.279 20.7497 101.328 20.1826C100.394 19.5987 99.6431 18.8147 99.0759 17.8306C98.5088 16.8297 98.2252 15.7204 98.2252 14.5027C98.2252 13.3017 98.5088 12.2174 99.0759 11.2499C99.6431 10.2658 100.402 9.49845 101.353 8.94798C102.304 8.39751 103.313 8.12227 104.38 8.12227C105.248 8.12227 106.049 8.36415 106.782 8.84789C107.533 9.33164 108.1 10.0573 108.484 11.0247V8.12227H113.738V20.8331H108.484V18.5061C107.65 20.1909 106.282 21.0333 104.38 21.0333ZM106.007 17.0799C106.674 17.0799 107.241 16.8464 107.708 16.3793C108.192 15.8956 108.451 15.3284 108.484 14.6779V14.4777C108.451 13.8105 108.184 13.2433 107.683 12.7762C107.2 12.3092 106.641 12.0756 106.007 12.0756C105.306 12.0756 104.706 12.3259 104.205 12.8263C103.722 13.31 103.48 13.8939 103.48 14.5778C103.48 15.2784 103.73 15.8705 104.23 16.3543C104.731 16.838 105.323 17.0799 106.007 17.0799Z" fill="white"/>
<path d="M116.273 8.47257H121.302V11.0247C122.27 9.08977 123.804 8.12227 125.906 8.12227C127.507 8.12227 128.758 8.69777 129.659 9.84875C130.577 10.983 131.035 12.5594 131.035 14.5778V20.8331H125.781V14.0523C125.781 13.3351 125.622 12.7846 125.306 12.4009C125.005 12.0173 124.58 11.8254 124.029 11.8254C123.629 11.8254 123.237 11.9589 122.853 12.2258C122.47 12.476 122.153 12.843 121.903 13.3267C121.669 13.8105 121.552 14.3609 121.552 14.9781V20.8331H116.273V8.47257Z" fill="white"/>
</svg>
