<svg width="177" height="185" viewBox="0 0 177 185" fill="none" xmlns="http://www.w3.org/2000/svg">
<g clip-path="url(#clip0_13_2553)">
<path d="M140.169 131.098C148.669 131.034 157.169 130.97 165.669 130.907C168.079 130.89 170.494 130.861 172.906 130.875C173.237 130.875 173.612 131.055 173.414 131.425C173.215 131.795 172.564 131.927 172.183 131.935C163.681 132.108 155.17 132.086 146.67 132.15L139.419 132.205C139.074 132.209 138.682 132.011 138.891 131.629C139.1 131.248 139.779 131.1 140.179 131.097L140.169 131.098Z" fill="white"/>
<path d="M171.816 131.745C166.784 123.283 161.671 114.868 156.475 106.507C154.992 104.118 153.497 101.735 152.002 99.353C151.606 98.7229 153.365 98.1315 153.687 98.6416C158.932 106.975 164.092 115.357 169.172 123.791C170.622 126.199 172.067 128.616 173.505 131.031C173.887 131.675 172.123 132.258 171.82 131.742L171.816 131.745Z" fill="white"/>
<path d="M138.919 131.853C142.987 123.464 145.976 114.617 149.125 105.858C150.008 103.402 150.908 100.947 151.845 98.5088C151.994 98.1183 152.49 97.935 152.877 97.8909C153.069 97.8668 153.81 97.8903 153.661 98.2808C150.293 107.053 147.442 116.027 143.836 124.709C142.826 127.134 141.759 129.534 140.611 131.898C140.353 132.428 138.539 132.643 138.921 131.857L138.919 131.853Z" fill="white"/>
<path d="M171.844 132.039C164.289 129.584 156.773 127.009 149.3 124.321C147.17 123.556 145.044 122.778 142.919 121.993C142.506 121.84 142.866 121.42 143.078 121.281C143.441 121.045 143.956 120.959 144.364 121.11C151.815 123.864 159.306 126.508 166.84 129.03C168.986 129.748 171.137 130.457 173.29 131.16C173.718 131.299 173.332 131.74 173.131 131.872C172.757 132.115 172.265 132.176 171.846 132.043L171.844 132.039Z" fill="white"/>
<path d="M169.423 132.049C163.214 127.518 157.092 122.855 151.08 118.063C149.374 116.705 147.677 115.336 145.986 113.959C145.661 113.696 146.286 113.313 146.471 113.228C146.822 113.074 147.349 112.982 147.675 113.245C153.634 118.105 159.691 122.844 165.849 127.448C167.597 128.755 169.348 130.049 171.111 131.336C171.451 131.585 170.795 131.991 170.627 132.066C170.258 132.225 169.767 132.297 169.423 132.049Z" fill="white"/>
<path d="M146.024 114.433C143.959 113.423 141.851 112.526 139.755 111.583C139.382 111.418 139.68 111.05 139.903 110.91C140.25 110.694 140.733 110.6 141.124 110.749C143.268 111.577 145.357 112.573 147.421 113.582C147.792 113.765 147.504 114.121 147.269 114.268C146.94 114.469 146.395 114.615 146.024 114.433Z" fill="white"/>
<path d="M143.083 121.099C141.539 117.571 139.886 114.068 138.476 110.479C138.257 109.92 139.926 109.446 140.2 110.016C141.871 113.493 143.317 117.088 144.859 120.623C145.096 121.165 143.352 121.716 143.083 121.099Z" fill="white"/>
<path d="M141.384 109.669C142.437 109.904 143.498 110.096 144.566 110.246C145.635 110.395 146.672 110.443 147.769 110.566C148.096 110.606 148.201 110.892 147.994 111.126C147.732 111.424 147.266 111.547 146.884 111.544C145.759 111.541 144.613 111.388 143.5 111.237C142.387 111.086 141.341 110.891 140.275 110.652C140.145 110.624 139.961 110.551 139.925 110.403C139.889 110.256 140.006 110.101 140.105 110.011C140.415 109.729 140.972 109.576 141.388 109.667L141.384 109.669Z" fill="white"/>
<path d="M144.158 111.215C144.91 111.4 145.665 111.579 146.42 111.768C146.542 111.801 146.706 111.859 146.744 112C146.782 112.141 146.672 112.28 146.578 112.362C146.418 112.498 146.219 112.596 146.018 112.642C145.816 112.687 145.596 112.728 145.392 112.677C144.634 112.5 143.877 112.318 143.12 112.135C142.994 112.104 142.828 112.043 142.79 111.901C142.752 111.76 142.863 111.615 142.957 111.533C143.118 111.397 143.32 111.297 143.526 111.248C143.731 111.2 143.954 111.164 144.158 111.215Z" fill="white"/>
<path d="M141.872 111.517L141.683 111.529C141.473 111.541 141.82 111.52 141.652 111.53L142.28 110.608C143.608 111.026 144.949 111.394 146.299 111.74C146.421 111.772 146.584 111.83 146.622 111.971C146.66 112.112 146.551 112.252 146.457 112.333C146.163 112.585 145.658 112.745 145.267 112.65C143.914 112.328 142.574 111.944 141.249 111.518C141.141 111.483 140.949 111.431 140.925 111.287C140.905 111.168 140.958 111.072 141.037 110.983C141.296 110.698 141.721 110.588 142.094 110.585C142.239 110.583 142.379 110.572 142.518 110.568C142.779 110.559 143.193 110.749 142.972 111.062C142.727 111.399 142.256 111.497 141.868 111.52L141.872 111.517Z" fill="white"/>
<path d="M145.307 111.28C145.919 111.606 146.53 111.932 147.135 112.274C147.25 112.343 147.336 112.435 147.311 112.58C147.286 112.725 147.11 112.87 146.988 112.94C146.792 113.053 146.57 113.138 146.344 113.16C146.159 113.179 145.951 113.185 145.782 113.098C145.16 112.783 144.548 112.446 143.934 112.116C143.814 112.049 143.73 111.951 143.755 111.806C143.78 111.661 143.96 111.513 144.082 111.443C144.282 111.328 144.508 111.241 144.737 111.223C144.921 111.203 145.137 111.193 145.309 111.284L145.307 111.28Z" fill="white"/>
<path d="M145.652 112.37C145.716 111.974 145.781 111.578 145.856 111.181C145.875 111.11 145.913 111.045 145.971 110.995C146.028 110.924 146.098 110.867 146.179 110.82C146.277 110.764 146.375 110.718 146.481 110.684C146.592 110.642 146.706 110.614 146.823 110.601L147.039 110.59C147.16 110.591 147.275 110.612 147.385 110.662L147.495 110.74C147.554 110.804 147.575 110.879 147.555 110.966C147.501 111.362 147.437 111.758 147.374 112.147C147.353 112.224 147.317 112.283 147.259 112.333C147.202 112.404 147.128 112.463 147.046 112.51C146.949 112.567 146.846 112.615 146.741 112.649C146.63 112.691 146.516 112.719 146.394 112.735L146.178 112.745C146.058 112.744 145.941 112.719 145.828 112.675L145.712 112.596C145.651 112.528 145.63 112.453 145.649 112.366L145.652 112.37Z" fill="white"/>
<path d="M130.205 129.338L127.224 128.537C127.102 128.504 126.941 128.45 126.903 128.309C126.869 128.176 126.974 128.029 127.066 127.953C127.223 127.82 127.417 127.724 127.619 127.678C127.82 127.633 128.039 127.588 128.234 127.644L131.218 128.443C131.341 128.476 131.502 128.529 131.54 128.671C131.573 128.803 131.468 128.951 131.376 129.026C131.22 129.16 131.026 129.256 130.824 129.301C130.622 129.347 130.404 129.392 130.209 129.336L130.205 129.338Z" fill="white"/>
<path d="M134.279 122.535L128.841 121.07C128.719 121.037 128.558 120.983 128.518 120.838C128.484 120.705 128.589 120.557 128.683 120.476C128.969 120.229 129.484 120.057 129.863 120.159L135.304 121.622C135.426 121.655 135.59 121.713 135.628 121.854C135.663 121.991 135.556 122.134 135.462 122.216C135.176 122.463 134.658 122.637 134.276 122.531L134.279 122.535Z" fill="white"/>
<path d="M141.377 106.852C139.617 106.286 137.855 105.716 136.1 105.148C135.976 105.111 135.813 105.064 135.776 104.916C135.741 104.779 135.852 104.633 135.942 104.554C136.218 104.319 136.76 104.12 137.132 104.237C138.895 104.801 140.657 105.371 142.417 105.937C142.543 105.978 142.704 106.021 142.747 106.17C142.782 106.307 142.674 106.457 142.579 106.539C142.299 106.777 141.753 106.978 141.382 106.861L141.377 106.852Z" fill="white"/>
<path d="M149.587 97.2194C147.912 96.8001 146.241 96.3785 144.567 95.9592C144.445 95.9264 144.277 95.871 144.239 95.7299C144.201 95.5888 144.312 95.443 144.408 95.3656C144.703 95.1141 145.211 94.9511 145.602 95.046C147.281 95.4629 148.956 95.8822 150.631 96.3014C150.757 96.3319 150.923 96.3937 150.961 96.5348C150.999 96.676 150.888 96.8217 150.794 96.9032C150.495 97.1571 149.983 97.3224 149.589 97.2235L149.587 97.2194Z" fill="white"/>
</g>
<path d="M123.937 103.5C110.413 96.2913 77.4585 84.0842 53.8297 92.9241C50.8264 94.0476 48.2605 95.4903 46.0788 97.1798C20.9959 116.605 63.2325 155.516 83.7974 131.359V131.359V131.359C110.511 99.9791 61.2569 58.2771 21.4176 47.7348C7.27492 43.9924 -7.7452 42.0933 -21.9997 43.9732" stroke="white" stroke-width="1.03795" stroke-dasharray="8.3 8.3"/>
<defs>
<clipPath id="clip0_13_2553">
<rect width="39" height="46" fill="white" transform="matrix(0.866025 -0.5 -0.5 -0.866025 140 151)"/>
</clipPath>
</defs>
</svg>
