<svg width="117" height="34" viewBox="0 0 117 34" fill="none" xmlns="http://www.w3.org/2000/svg">
<path d="M23.6767 11.9268L23.6623 11.9105C23.6611 11.9096 23.6602 11.9084 23.6596 11.907L14.6487 1.72178L4.46379 10.7327C4.46261 10.7338 4.4619 10.7352 4.46074 10.7359L4.44397 10.7503C2.88605 12.1364 1.83615 14.0035 1.46118 16.0548C1.08621 18.1062 1.40767 20.224 2.37448 22.0717C3.34128 23.9193 4.89794 25.3908 6.79701 26.2521C8.69606 27.1134 10.8285 27.3152 12.8554 26.8253C13.026 26.7844 13.2049 26.7953 13.3692 26.8567C15.3211 27.5897 17.4622 27.6493 19.4519 27.0257C21.4417 26.4022 23.1659 25.1315 24.3506 23.4155C25.5353 21.6996 26.1125 19.6368 25.9904 17.5552C25.8683 15.4736 25.0539 13.4925 23.6767 11.9268ZM7.4884 17.2896C7.43882 17.3335 7.39837 17.3867 7.36937 17.4462C7.34036 17.5056 7.32335 17.5702 7.31932 17.6363C7.23279 19.3313 7.61017 21.0178 8.41084 22.5144C8.42903 22.5483 8.43602 22.5872 8.43081 22.6253C8.42561 22.6634 8.40847 22.699 8.38184 22.7268C8.35522 22.7547 8.32048 22.7733 8.28259 22.7802C8.2447 22.7871 8.2056 22.7818 8.1709 22.7652C7.51986 22.4432 6.93779 21.9975 6.45724 21.453C5.4723 20.3395 4.96953 18.8806 5.05933 17.3967C5.14913 15.9128 5.82417 14.5252 6.93621 13.5387L14.3258 7.00154L20.8633 14.3905C21.847 15.5051 22.3481 16.9646 22.2563 18.4485C22.1647 19.9323 21.4878 21.319 20.3744 22.3042C19.831 22.7861 19.199 23.1575 18.5137 23.3978C18.4772 23.4101 18.4377 23.4105 18.4009 23.3991C18.3642 23.3876 18.332 23.3647 18.3089 23.334C18.2859 23.3031 18.2731 23.2657 18.2726 23.2271C18.2721 23.1887 18.2838 23.1509 18.306 23.1195C19.2832 21.7318 19.8636 20.1039 19.9846 18.4109C19.9886 18.3449 19.9795 18.2786 19.9578 18.216C19.9361 18.1533 19.9023 18.0957 19.8583 18.0461L16.7783 14.351C16.7472 14.3216 16.7068 14.3041 16.6641 14.3015C16.6214 14.2989 16.5791 14.3114 16.5447 14.3367C16.5102 14.362 16.4858 14.3987 16.4756 14.4402C16.4653 14.4818 16.47 14.5255 16.4888 14.5639C17.6264 16.9571 16.323 20.2149 14.3764 21.9373L14.3661 21.9464C14.0976 22.1814 13.7472 22.3009 13.3911 22.279C13.035 22.2571 12.7019 22.0955 12.4642 21.8295L12.4558 21.8199C10.733 19.873 9.83686 16.481 11.2579 14.2445C11.2812 14.2086 11.2911 14.1658 11.2861 14.1233C11.281 14.0808 11.2612 14.0414 11.23 14.0122C11.1989 13.9828 11.1585 13.9653 11.1158 13.9626C11.0731 13.96 11.0309 13.9725 10.9964 13.9979L7.4884 17.2896Z" fill="white"/>
<path d="M47.3875 11.7701L50.5641 11.9643L46.5958 22.7723L42.9654 22.5503L41.8247 15.9451L39.8678 22.3608L36.2374 22.1388L33.6158 10.9277L36.9897 11.1341L38.2332 18.9733L40.403 11.3429L43.9742 11.5613L45.198 19.3993L47.3875 11.7701Z" fill="white"/>
<path d="M58.3557 19.9862C58.8714 19.5425 59.1558 18.8865 59.2089 18.0184C59.262 17.1503 59.0592 16.4711 58.6007 15.981C58.143 15.4777 57.5985 15.2068 56.9671 15.1681C56.3357 15.1295 55.7622 15.3321 55.2466 15.7759C54.7309 16.2196 54.4466 16.8756 54.3935 17.7437C54.3404 18.6118 54.5427 19.2975 55.0004 19.8008C55.4589 20.291 56.0039 20.5553 56.6352 20.594C57.2666 20.6326 57.8401 20.43 58.3557 19.9862ZM52.1731 21.6677C51.2641 20.5559 50.8598 19.1779 50.9604 17.5337C51.061 15.8895 51.6301 14.5711 52.6678 13.5783C53.7063 12.5724 54.9227 12.1121 56.317 12.1974C57.7244 12.2835 58.7713 12.869 59.4574 13.954L59.5455 12.5137L62.9194 12.72L62.246 23.7295L58.8722 23.5232L58.9699 21.925C58.0836 23.0326 56.9565 23.5446 55.5885 23.4609C54.2205 23.3773 53.0821 22.7795 52.1731 21.6677Z" fill="white"/>
<path d="M64.4829 12.8157L68.0738 13.0353L70.0787 21.3766L73.0853 13.3418L76.6762 13.5614L72.0962 24.332L67.7161 24.0641L64.4829 12.8157Z" fill="white"/>
<path d="M82.2287 25.0903C80.6239 24.9922 79.34 24.3987 78.3767 23.31C77.4143 22.2081 76.9854 20.8022 77.09 19.0923C77.1946 17.3823 77.7842 16.0519 78.859 15.101C79.9469 14.151 81.2998 13.7254 82.9177 13.8244C84.5356 13.9233 85.8467 14.5052 86.851 15.57C87.8553 16.6349 88.3031 18.0551 88.1945 19.8309C88.1712 20.2123 88.1231 20.5658 88.0504 20.8915L80.474 20.4281C80.51 20.9188 80.7025 21.3332 81.0515 21.6714C81.4013 21.9965 81.7866 22.1719 82.2075 22.1976C82.6416 22.2242 82.9663 22.2044 83.1816 22.1384C83.3976 22.0592 83.5541 21.9829 83.651 21.9097C83.7619 21.824 83.9023 21.6874 84.0722 21.4997L87.7223 21.723C87.339 22.8086 86.653 23.6644 85.6641 24.2904C84.676 24.9033 83.5308 25.17 82.2287 25.0903ZM84.7465 18.5704C84.7252 18.0541 84.527 17.6261 84.1517 17.2863C83.7772 16.9333 83.3203 16.7404 82.781 16.7074C82.2417 16.6744 81.7778 16.8111 81.3894 17.1174C81.0018 17.4105 80.7463 17.8108 80.6228 18.3181L84.7465 18.5704Z" fill="white"/>
<path d="M94.0746 14.6256L93.9491 16.6775C94.8268 15.2789 95.9233 14.6198 97.2386 14.7003L97.0287 18.1333L96.2 18.0826C95.4239 18.0352 94.8273 18.1835 94.4102 18.5277C94.0062 18.8727 93.7761 19.5055 93.7198 20.4263L93.4012 25.635L90.0273 25.4287L90.7007 14.4192L94.0746 14.6256Z" fill="white"/>
<path d="M102.217 13.8759C101.812 14.234 101.333 14.3962 100.781 14.3624C100.229 14.3286 99.7733 14.1093 99.4152 13.7045C99.057 13.2998 98.8949 12.8212 98.9287 12.2687C98.9633 11.7031 99.1829 11.2412 99.5877 10.8831C99.9925 10.525 100.471 10.3628 101.024 10.3966C101.576 10.4304 102.031 10.6497 102.389 11.0545C102.748 11.4593 102.909 11.9445 102.875 12.5101C102.841 13.0625 102.622 13.5178 102.217 13.8759ZM98.3895 25.9401L99.0629 14.9307L102.437 15.137L101.763 26.1465L98.3895 25.9401Z" fill="white"/>
<path d="M111.549 23.2793C112.026 22.8332 112.291 22.1628 112.346 21.2684C112.401 20.374 112.212 19.6825 111.78 19.194C111.348 18.6923 110.817 18.4221 110.185 18.3835C109.554 18.3449 108.994 18.5483 108.504 18.9936C108.029 19.4267 107.764 20.0904 107.709 20.9848C107.654 21.8793 107.843 22.5773 108.274 23.079C108.719 23.5815 109.257 23.852 109.888 23.8907C110.52 23.9293 111.073 23.7255 111.549 23.2793ZM105.684 24.9604C104.642 23.8537 104.174 22.4519 104.277 20.7551C104.381 19.0583 105.016 17.7373 106.183 16.7921C107.351 15.8337 108.75 15.4043 110.381 15.5041C112.012 15.6039 113.342 16.2001 114.371 17.2929C115.414 18.3733 115.884 19.7619 115.78 21.4587C115.676 23.1555 115.047 24.49 113.891 25.4624C112.736 26.4347 111.343 26.871 109.712 26.7713C108.081 26.6715 106.738 26.0679 105.684 24.9604Z" fill="white"/>
</svg>
