<svg width="64" height="64" viewBox="0 0 64 64" fill="none" xmlns="http://www.w3.org/2000/svg">
<circle cx="32" cy="32" r="32" fill="#151515"/>
<path d="M28.1559 19.6367L29.6728 22.4307C28.8212 23.636 28.0228 24.9782 27.2777 26.4573C26.5858 27.9365 26.1866 29.4705 26.0802 31.0592L30.4711 31.881V41.3312H18.2563V34.5928C18.2563 30.7031 19.1345 27.5804 20.8909 25.2247C22.7005 22.8142 25.1222 20.9515 28.1559 19.6367ZM43.9632 19.6367L45.4801 22.4307C44.6285 23.636 43.8302 24.9782 43.085 26.4573C42.3931 27.9365 41.994 29.4705 41.8875 31.0592L46.2784 31.881V41.3312H34.0637V34.5928C34.0637 30.7031 34.9419 27.5804 36.6982 25.2247C38.5078 22.8142 40.9295 20.9515 43.9632 19.6367Z" fill="white"/>
</svg>
